<?xml version="1.0" encoding="UTF-8" standalone="no"?><svg xmlns="http://www.w3.org/2000/svg" xmlns:xlink="http://www.w3.org/1999/xlink" fill="#000000" height="147.2" preserveAspectRatio="xMidYMid meet" version="1" viewBox="0.0 -1.8 150.0 147.2" width="150" zoomAndPan="magnify"><g><g id="change1_1"><path d="M150,71.84c0,7.681-8.626,13.906-10.876,20.837c-2.332,7.183,0.907,17.273-3.445,23.252 c-4.395,6.039-15.021,6.055-21.06,10.45c-5.979,4.351-9.254,14.477-16.437,16.809c-6.931,2.25-15.501-3.943-23.182-3.943 c-7.681,0-16.251,6.193-23.182,3.942c-7.183-2.332-10.458-12.458-16.437-16.809c-6.039-4.395-16.665-4.411-21.06-10.45 c-4.351-5.979-1.112-16.069-3.445-23.252C8.626,85.745,0,79.521,0,71.84c0-7.681,8.626-13.906,10.876-20.837 c2.332-7.183-0.907-17.273,3.445-23.252c4.395-6.039,15.021-6.055,21.06-10.45C41.36,12.95,44.635,2.825,51.818,0.492 C58.749-1.758,67.319,4.435,75,4.435c7.681,0,16.251-6.193,23.182-3.942c7.183,2.332,10.458,12.458,16.437,16.809 c6.039,4.395,16.665,4.411,21.06,10.45c4.351,5.979,1.112,16.069,3.445,23.252C141.374,57.935,150,64.159,150,71.84z" fill="#0061df"/></g><g id="change2_1"><path d="M63.133,94.64c-0.083,0-0.166-0.002-0.249-0.006c-1.41-0.07-2.726-0.733-3.62-1.826l-11.867-14.49 c-1.75-2.137-1.436-5.286,0.7-7.036c2.136-1.748,5.287-1.436,7.036,0.7L63.502,82.2l31.697-31.695c1.954-1.953,5.119-1.952,7.071,0 c1.953,1.952,1.953,5.118,0,7.07L66.668,93.176C65.729,94.116,64.456,94.64,63.133,94.64z" fill="#ffffff"/></g></g></svg>