<?xml version="1.0" encoding="UTF-8"?><svg xmlns="http://www.w3.org/2000/svg" xmlns:xlink="http://www.w3.org/1999/xlink" height="2192.0" preserveAspectRatio="xMidYMid meet" version="1.0" viewBox="365.0 995.4 3237.2 2192.0" width="3237.2" zoomAndPan="magnify"><defs><linearGradient gradientTransform="matrix(217.524 125.587 634.375 -1098.77 818.009 3317.903)" gradientUnits="userSpaceOnUse" id="b" x1=".234" x2="1" xlink:actuate="onLoad" xlink:show="other" xlink:type="simple" xmlns:xlink="http://www.w3.org/1999/xlink" y1="0" y2="0"><stop offset="0" stop-color="#84a7cf"/><stop offset=".008" stop-color="#84a7cf"/><stop offset=".016" stop-color="#85a7cf"/><stop offset=".023" stop-color="#86a8d0"/><stop offset=".031" stop-color="#86a8d0"/><stop offset=".047" stop-color="#87a9d1"/><stop offset=".055" stop-color="#87aad1"/><stop offset=".063" stop-color="#88aad2"/><stop offset=".07" stop-color="#89abd2"/><stop offset=".078" stop-color="#89acd3"/><stop offset=".086" stop-color="#8aacd4"/><stop offset=".094" stop-color="#8badd4"/><stop offset=".109" stop-color="#8caed5"/><stop offset=".117" stop-color="#8daed6"/><stop offset=".125" stop-color="#8dafd6"/><stop offset=".133" stop-color="#8eafd7"/><stop offset=".141" stop-color="#8fb0d7"/><stop offset=".156" stop-color="#8fb1d8"/><stop offset=".164" stop-color="#90b1d9"/><stop offset=".172" stop-color="#90b2d9"/><stop offset=".18" stop-color="#91b3d9"/><stop offset=".188" stop-color="#91b3d9"/><stop offset=".203" stop-color="#92b4da"/><stop offset=".211" stop-color="#92b4da"/><stop offset=".219" stop-color="#93b4db"/><stop offset=".234" stop-color="#93b4db"/><stop offset=".242" stop-color="#94b5dc"/><stop offset=".25" stop-color="#95b6dd"/><stop offset=".266" stop-color="#96b6dd"/><stop offset=".281" stop-color="#97b7de"/><stop offset=".297" stop-color="#98b8df"/><stop offset=".313" stop-color="#98b9df"/><stop offset=".32" stop-color="#99bae0"/><stop offset=".328" stop-color="#9abae1"/><stop offset=".336" stop-color="#9abbe1"/><stop offset=".344" stop-color="#9bbbe1"/><stop offset=".359" stop-color="#9cbce2"/><stop offset=".375" stop-color="#9dbde2"/><stop offset=".391" stop-color="#9ebee2"/><stop offset=".406" stop-color="#9ebfe3"/><stop offset=".422" stop-color="#9fc0e4"/><stop offset=".43" stop-color="#a0c1e5"/><stop offset=".438" stop-color="#a1c1e5"/><stop offset=".445" stop-color="#a1c2e5"/><stop offset=".453" stop-color="#a2c2e6"/><stop offset=".469" stop-color="#a3c3e6"/><stop offset=".484" stop-color="#a4c4e7"/><stop offset=".5" stop-color="#a4c5e8"/><stop offset=".516" stop-color="#a5c6e9"/><stop offset=".531" stop-color="#a6c6ea"/><stop offset=".547" stop-color="#a7c7eb"/><stop offset=".563" stop-color="#a8c8eb"/><stop offset=".57" stop-color="#a9c9eb"/><stop offset=".578" stop-color="#a9c9ec"/><stop offset=".586" stop-color="#aacaec"/><stop offset=".594" stop-color="#abcaed"/><stop offset=".609" stop-color="#abcaed"/><stop offset=".625" stop-color="#accbed"/><stop offset=".641" stop-color="#adccee"/><stop offset=".656" stop-color="#aecdee"/><stop offset=".672" stop-color="#afceee"/><stop offset=".688" stop-color="#b0cfef"/><stop offset=".703" stop-color="#b1cfef"/><stop offset=".719" stop-color="#b1d0ef"/><stop offset=".734" stop-color="#b2d1f0"/><stop offset=".742" stop-color="#b3d2f0"/><stop offset=".75" stop-color="#b4d3f0"/><stop offset=".758" stop-color="#b5d3f0"/><stop offset=".766" stop-color="#b5d4f1"/><stop offset=".773" stop-color="#b6d4f1"/><stop offset=".781" stop-color="#b6d5f1"/><stop offset=".789" stop-color="#b7d6f2"/><stop offset=".797" stop-color="#b7d7f2"/><stop offset=".805" stop-color="#b8d8f2"/><stop offset=".813" stop-color="#b9d8f2"/><stop offset=".828" stop-color="#b9d8f3"/><stop offset=".844" stop-color="#b9d9f3"/><stop offset=".852" stop-color="#bad9f3"/><stop offset=".859" stop-color="#bbdaf3"/><stop offset=".867" stop-color="#bcdaf3"/><stop offset=".875" stop-color="#bcdaf3"/><stop offset=".891" stop-color="#bddbf3"/><stop offset=".906" stop-color="#bedbf4"/><stop offset=".922" stop-color="#bfddf4"/><stop offset=".938" stop-color="#c0ddf4"/><stop offset=".953" stop-color="#c1def5"/><stop offset=".969" stop-color="#c2dff5"/><stop offset=".984" stop-color="#c2e0f5"/><stop offset="1" stop-color="#c3e1f6"/></linearGradient><linearGradient gradientTransform="matrix(217.521 125.586 634.369 -1098.76 910.919 3317.563)" gradientUnits="userSpaceOnUse" id="d" x1=".237" x2="1.002" xlink:actuate="onLoad" xlink:show="other" xlink:type="simple" xmlns:xlink="http://www.w3.org/1999/xlink" y1="0" y2="0"><stop offset="0" stop-color="#84a7cf"/><stop offset=".008" stop-color="#84a7cf"/><stop offset=".016" stop-color="#85a8d0"/><stop offset=".023" stop-color="#86a8d0"/><stop offset=".031" stop-color="#86a9d0"/><stop offset=".047" stop-color="#87a9d1"/><stop offset=".055" stop-color="#88aad2"/><stop offset=".063" stop-color="#88abd2"/><stop offset=".07" stop-color="#89abd3"/><stop offset=".078" stop-color="#8aacd3"/><stop offset=".086" stop-color="#8badd4"/><stop offset=".094" stop-color="#8badd4"/><stop offset=".109" stop-color="#8caed5"/><stop offset=".117" stop-color="#8dafd6"/><stop offset=".125" stop-color="#8eafd7"/><stop offset=".141" stop-color="#8fb0d7"/><stop offset=".156" stop-color="#8fb1d8"/><stop offset=".164" stop-color="#90b2d9"/><stop offset=".172" stop-color="#90b2d9"/><stop offset=".18" stop-color="#91b3d9"/><stop offset=".188" stop-color="#91b4d9"/><stop offset=".203" stop-color="#92b4da"/><stop offset=".211" stop-color="#92b4da"/><stop offset=".219" stop-color="#93b4db"/><stop offset=".227" stop-color="#93b4db"/><stop offset=".234" stop-color="#94b5dc"/><stop offset=".242" stop-color="#95b5dc"/><stop offset=".25" stop-color="#95b6dd"/><stop offset=".266" stop-color="#96b7dd"/><stop offset=".281" stop-color="#97b7de"/><stop offset=".297" stop-color="#98b8df"/><stop offset=".313" stop-color="#99b9e0"/><stop offset=".32" stop-color="#99bae0"/><stop offset=".328" stop-color="#9abbe1"/><stop offset=".336" stop-color="#9bbbe1"/><stop offset=".344" stop-color="#9bbce1"/><stop offset=".359" stop-color="#9cbce2"/><stop offset=".375" stop-color="#9dbde2"/><stop offset=".391" stop-color="#9ebee3"/><stop offset=".406" stop-color="#9fbfe3"/><stop offset=".422" stop-color="#9fc0e4"/><stop offset=".43" stop-color="#a0c1e5"/><stop offset=".438" stop-color="#a1c1e5"/><stop offset=".445" stop-color="#a2c2e5"/><stop offset=".453" stop-color="#a2c2e6"/><stop offset=".469" stop-color="#a3c3e7"/><stop offset=".484" stop-color="#a4c4e8"/><stop offset=".5" stop-color="#a5c5e8"/><stop offset=".516" stop-color="#a5c6e9"/><stop offset=".531" stop-color="#a6c6ea"/><stop offset=".547" stop-color="#a7c7eb"/><stop offset=".563" stop-color="#a8c8eb"/><stop offset=".57" stop-color="#a9c9ec"/><stop offset=".578" stop-color="#aacaec"/><stop offset=".594" stop-color="#abcaed"/><stop offset=".609" stop-color="#accbed"/><stop offset=".625" stop-color="#accced"/><stop offset=".641" stop-color="#adcdee"/><stop offset=".656" stop-color="#aeceee"/><stop offset=".672" stop-color="#afceee"/><stop offset=".688" stop-color="#b0cfef"/><stop offset=".703" stop-color="#b1d0ef"/><stop offset=".719" stop-color="#b2d1ef"/><stop offset=".734" stop-color="#b3d2f0"/><stop offset=".742" stop-color="#b3d2f0"/><stop offset=".75" stop-color="#b4d3f0"/><stop offset=".758" stop-color="#b5d4f1"/><stop offset=".766" stop-color="#b5d4f1"/><stop offset=".773" stop-color="#b6d5f1"/><stop offset=".781" stop-color="#b6d6f1"/><stop offset=".789" stop-color="#b7d6f2"/><stop offset=".797" stop-color="#b8d7f2"/><stop offset=".813" stop-color="#b8d8f2"/><stop offset=".828" stop-color="#b9d8f3"/><stop offset=".836" stop-color="#b9d9f3"/><stop offset=".844" stop-color="#bad9f3"/><stop offset=".852" stop-color="#bbdaf3"/><stop offset=".859" stop-color="#bcdaf3"/><stop offset=".875" stop-color="#bcdaf3"/><stop offset=".891" stop-color="#bddbf3"/><stop offset=".906" stop-color="#bedcf4"/><stop offset=".922" stop-color="#bfddf4"/><stop offset=".938" stop-color="#c0def5"/><stop offset=".953" stop-color="#c1def5"/><stop offset=".969" stop-color="#c2dff5"/><stop offset=".984" stop-color="#c3e0f6"/><stop offset="1" stop-color="#c3e1f6"/></linearGradient><linearGradient gradientTransform="matrix(217.524 125.587 570.599 -988.307 932.657 3119.031)" gradientUnits="userSpaceOnUse" id="f" x1="0" x2=".473" xlink:actuate="onLoad" xlink:show="other" xlink:type="simple" xmlns:xlink="http://www.w3.org/1999/xlink" y1="0" y2="0"><stop offset="0" stop-color="#5c6b88"/><stop offset=".031" stop-color="#5c6b88"/><stop offset=".063" stop-color="#5d6c89"/><stop offset=".094" stop-color="#5d6c89"/><stop offset=".125" stop-color="#5e6d8a"/><stop offset=".156" stop-color="#5f6e8b"/><stop offset=".188" stop-color="#5f6f8c"/><stop offset=".203" stop-color="#606f8c"/><stop offset=".219" stop-color="#616f8d"/><stop offset=".234" stop-color="#61708d"/><stop offset=".25" stop-color="#62708d"/><stop offset=".281" stop-color="#62718e"/><stop offset=".297" stop-color="#63718e"/><stop offset=".313" stop-color="#63728e"/><stop offset=".328" stop-color="#63728e"/><stop offset=".344" stop-color="#64738e"/><stop offset=".375" stop-color="#64738f"/><stop offset=".406" stop-color="#65748f"/><stop offset=".438" stop-color="#657490"/><stop offset=".469" stop-color="#667590"/><stop offset=".5" stop-color="#677691"/><stop offset=".531" stop-color="#677692"/><stop offset=".563" stop-color="#687793"/><stop offset=".594" stop-color="#697893"/><stop offset=".625" stop-color="#6a7994"/><stop offset=".656" stop-color="#6a7995"/><stop offset=".688" stop-color="#6b7a95"/><stop offset=".719" stop-color="#6b7a96"/><stop offset=".75" stop-color="#6c7b97"/><stop offset=".781" stop-color="#6d7c97"/><stop offset=".813" stop-color="#6d7c98"/><stop offset=".828" stop-color="#6e7d98"/><stop offset=".844" stop-color="#6e7d99"/><stop offset=".859" stop-color="#6f7d99"/><stop offset=".875" stop-color="#6f7e99"/><stop offset=".906" stop-color="#707e9a"/><stop offset=".922" stop-color="#717f9a"/><stop offset=".938" stop-color="#717f9b"/><stop offset=".953" stop-color="#717f9b"/><stop offset=".969" stop-color="#727f9c"/><stop offset="1" stop-color="#727f9c"/></linearGradient><linearGradient gradientTransform="matrix(217.521 125.586 567.05 -982.16 1029.2 3112.61)" gradientUnits="userSpaceOnUse" id="h" x1=".002" x2=".459" xlink:actuate="onLoad" xlink:show="other" xlink:type="simple" xmlns:xlink="http://www.w3.org/1999/xlink" y1="0" y2="0"><stop offset="0" stop-color="#5c6b88"/><stop offset=".031" stop-color="#5c6b88"/><stop offset=".063" stop-color="#5d6c89"/><stop offset=".094" stop-color="#5d6c89"/><stop offset=".125" stop-color="#5e6d8a"/><stop offset=".156" stop-color="#5f6e8b"/><stop offset=".188" stop-color="#5f6e8c"/><stop offset=".203" stop-color="#606f8c"/><stop offset=".219" stop-color="#616f8d"/><stop offset=".234" stop-color="#61708d"/><stop offset=".25" stop-color="#62708d"/><stop offset=".281" stop-color="#62718e"/><stop offset=".297" stop-color="#63718e"/><stop offset=".313" stop-color="#63728e"/><stop offset=".328" stop-color="#63728e"/><stop offset=".344" stop-color="#63728e"/><stop offset=".375" stop-color="#64738f"/><stop offset=".406" stop-color="#65748f"/><stop offset=".438" stop-color="#657490"/><stop offset=".469" stop-color="#667590"/><stop offset=".5" stop-color="#667591"/><stop offset=".531" stop-color="#677692"/><stop offset=".563" stop-color="#687792"/><stop offset=".594" stop-color="#687893"/><stop offset=".625" stop-color="#697894"/><stop offset=".656" stop-color="#6a7994"/><stop offset=".688" stop-color="#6a7995"/><stop offset=".719" stop-color="#6b7a96"/><stop offset=".75" stop-color="#6c7b96"/><stop offset=".781" stop-color="#6c7b97"/><stop offset=".813" stop-color="#6d7c97"/><stop offset=".844" stop-color="#6d7d98"/><stop offset=".859" stop-color="#6e7d98"/><stop offset=".875" stop-color="#6f7d99"/><stop offset=".906" stop-color="#6f7e99"/><stop offset=".938" stop-color="#707e9a"/><stop offset=".953" stop-color="#717f9b"/><stop offset=".969" stop-color="#717f9b"/><stop offset="1" stop-color="#727f9c"/></linearGradient><linearGradient gradientTransform="matrix(367.887 212.399 1007.83 -1745.61 2140.01 3079.861)" gradientUnits="userSpaceOnUse" id="j" x1="0" x2="1" xlink:actuate="onLoad" xlink:show="other" xlink:type="simple" xmlns:xlink="http://www.w3.org/1999/xlink" y1="0" y2="0"><stop offset="0" stop-color="#7095be"/><stop offset=".004" stop-color="#7195bf"/><stop offset=".008" stop-color="#7195bf"/><stop offset=".016" stop-color="#7296bf"/><stop offset=".02" stop-color="#7397c0"/><stop offset=".023" stop-color="#7397c0"/><stop offset=".031" stop-color="#7397c1"/><stop offset=".035" stop-color="#7498c1"/><stop offset=".039" stop-color="#7598c2"/><stop offset=".047" stop-color="#7599c2"/><stop offset=".055" stop-color="#7599c3"/><stop offset=".063" stop-color="#769ac3"/><stop offset=".07" stop-color="#769ac4"/><stop offset=".074" stop-color="#779bc4"/><stop offset=".078" stop-color="#779bc4"/><stop offset=".086" stop-color="#779cc4"/><stop offset=".094" stop-color="#789cc5"/><stop offset=".098" stop-color="#799dc5"/><stop offset=".102" stop-color="#799dc6"/><stop offset=".109" stop-color="#7a9ec6"/><stop offset=".117" stop-color="#7a9ec6"/><stop offset=".125" stop-color="#7b9ec7"/><stop offset=".133" stop-color="#7b9fc7"/><stop offset=".137" stop-color="#7c9fc8"/><stop offset=".141" stop-color="#7d9fc8"/><stop offset=".145" stop-color="#7da0c9"/><stop offset=".148" stop-color="#7da0c9"/><stop offset=".156" stop-color="#7ea0c9"/><stop offset=".164" stop-color="#7ea1ca"/><stop offset=".172" stop-color="#7fa1ca"/><stop offset=".18" stop-color="#7fa2cb"/><stop offset=".188" stop-color="#80a2cc"/><stop offset=".191" stop-color="#81a3cc"/><stop offset=".195" stop-color="#81a4cd"/><stop offset=".203" stop-color="#81a4cd"/><stop offset=".211" stop-color="#82a5ce"/><stop offset=".219" stop-color="#83a5ce"/><stop offset=".227" stop-color="#83a6ce"/><stop offset=".234" stop-color="#84a7ce"/><stop offset=".242" stop-color="#84a7cf"/><stop offset=".246" stop-color="#85a8d0"/><stop offset=".25" stop-color="#86a8d0"/><stop offset=".258" stop-color="#86a8d0"/><stop offset=".266" stop-color="#87a9d1"/><stop offset=".273" stop-color="#87aad1"/><stop offset=".281" stop-color="#88aad2"/><stop offset=".285" stop-color="#89abd2"/><stop offset=".289" stop-color="#89acd3"/><stop offset=".293" stop-color="#8aacd3"/><stop offset=".297" stop-color="#8aacd4"/><stop offset=".301" stop-color="#8badd4"/><stop offset=".305" stop-color="#8badd4"/><stop offset=".313" stop-color="#8cadd5"/><stop offset=".32" stop-color="#8caed5"/><stop offset=".324" stop-color="#8dafd6"/><stop offset=".328" stop-color="#8eafd6"/><stop offset=".336" stop-color="#8eafd7"/><stop offset=".344" stop-color="#8fb0d7"/><stop offset=".352" stop-color="#8fb1d8"/><stop offset=".359" stop-color="#90b1d9"/><stop offset=".363" stop-color="#90b2d9"/><stop offset=".367" stop-color="#91b2d9"/><stop offset=".371" stop-color="#91b3d9"/><stop offset=".375" stop-color="#91b3d9"/><stop offset=".383" stop-color="#91b4d9"/><stop offset=".391" stop-color="#92b4da"/><stop offset=".395" stop-color="#92b4da"/><stop offset=".398" stop-color="#93b4db"/><stop offset=".406" stop-color="#93b4db"/><stop offset=".414" stop-color="#94b5dc"/><stop offset=".418" stop-color="#94b5dc"/><stop offset=".422" stop-color="#95b6dd"/><stop offset=".43" stop-color="#95b6dd"/><stop offset=".438" stop-color="#96b7dd"/><stop offset=".445" stop-color="#97b7de"/><stop offset=".453" stop-color="#97b8de"/><stop offset=".461" stop-color="#98b8df"/><stop offset=".469" stop-color="#98b9df"/><stop offset=".477" stop-color="#99b9e0"/><stop offset=".484" stop-color="#99bae0"/><stop offset=".488" stop-color="#9abbe1"/><stop offset=".492" stop-color="#9bbbe1"/><stop offset=".5" stop-color="#9bbce1"/><stop offset=".508" stop-color="#9cbce2"/><stop offset=".516" stop-color="#9cbde2"/><stop offset=".523" stop-color="#9dbde2"/><stop offset=".531" stop-color="#9ebee3"/><stop offset=".539" stop-color="#9ebfe3"/><stop offset=".547" stop-color="#9fbfe3"/><stop offset=".555" stop-color="#9fc0e4"/><stop offset=".563" stop-color="#a0c0e5"/><stop offset=".566" stop-color="#a1c1e5"/><stop offset=".57" stop-color="#a1c2e5"/><stop offset=".578" stop-color="#a2c2e5"/><stop offset=".586" stop-color="#a2c3e6"/><stop offset=".594" stop-color="#a3c3e7"/><stop offset=".602" stop-color="#a3c4e7"/><stop offset=".609" stop-color="#a4c4e8"/><stop offset=".617" stop-color="#a5c5e8"/><stop offset=".625" stop-color="#a5c6e9"/><stop offset=".633" stop-color="#a6c6ea"/><stop offset=".641" stop-color="#a6c6ea"/><stop offset=".648" stop-color="#a7c7ea"/><stop offset=".656" stop-color="#a7c7eb"/><stop offset=".664" stop-color="#a8c8eb"/><stop offset=".672" stop-color="#a9c9eb"/><stop offset=".676" stop-color="#aacaec"/><stop offset=".68" stop-color="#aacaed"/><stop offset=".688" stop-color="#abcaed"/><stop offset=".695" stop-color="#abcaed"/><stop offset=".703" stop-color="#accbed"/><stop offset=".711" stop-color="#accbed"/><stop offset=".719" stop-color="#adcced"/><stop offset=".727" stop-color="#adcdee"/><stop offset=".734" stop-color="#aecdee"/><stop offset=".742" stop-color="#afceee"/><stop offset=".75" stop-color="#afceee"/><stop offset=".758" stop-color="#b0cfef"/><stop offset=".766" stop-color="#b0cfef"/><stop offset=".773" stop-color="#b1d0ef"/><stop offset=".781" stop-color="#b1d0ef"/><stop offset=".789" stop-color="#b2d1ef"/><stop offset=".797" stop-color="#b3d2f0"/><stop offset=".805" stop-color="#b3d2f0"/><stop offset=".809" stop-color="#b4d3f0"/><stop offset=".813" stop-color="#b5d4f1"/><stop offset=".82" stop-color="#b5d4f1"/><stop offset=".828" stop-color="#b6d5f1"/><stop offset=".832" stop-color="#b6d6f1"/><stop offset=".836" stop-color="#b7d6f2"/><stop offset=".844" stop-color="#b7d7f2"/><stop offset=".848" stop-color="#b8d8f2"/><stop offset=".852" stop-color="#b9d8f2"/><stop offset=".859" stop-color="#b9d8f2"/><stop offset=".875" stop-color="#b9d9f3"/><stop offset=".883" stop-color="#bad9f3"/><stop offset=".887" stop-color="#bbdaf3"/><stop offset=".891" stop-color="#bbdaf3"/><stop offset=".898" stop-color="#bcdaf3"/><stop offset=".906" stop-color="#bddaf3"/><stop offset=".914" stop-color="#bddaf3"/><stop offset=".922" stop-color="#bedbf4"/><stop offset=".93" stop-color="#bedcf4"/><stop offset=".938" stop-color="#bfddf4"/><stop offset=".945" stop-color="#bfddf4"/><stop offset=".953" stop-color="#c0def5"/><stop offset=".961" stop-color="#c1def5"/><stop offset=".969" stop-color="#c1def5"/><stop offset=".977" stop-color="#c2dff5"/><stop offset=".984" stop-color="#c2e0f5"/><stop offset=".992" stop-color="#c3e0f6"/><stop offset="1" stop-color="#c4e1f6"/></linearGradient><linearGradient gradientTransform="matrix(543.929 314.038 1598.44 -2768.57 247.333 3038.062)" gradientUnits="userSpaceOnUse" id="l" x1="0" x2="1" xlink:actuate="onLoad" xlink:show="other" xlink:type="simple" xmlns:xlink="http://www.w3.org/1999/xlink" y1="0" y2="0"><stop offset="0" stop-color="#7095be"/><stop offset=".004" stop-color="#7195bf"/><stop offset=".008" stop-color="#7195bf"/><stop offset=".012" stop-color="#7296bf"/><stop offset=".016" stop-color="#7296c0"/><stop offset=".02" stop-color="#7296c0"/><stop offset=".023" stop-color="#7397c0"/><stop offset=".031" stop-color="#7397c1"/><stop offset=".035" stop-color="#7498c1"/><stop offset=".039" stop-color="#7598c2"/><stop offset=".047" stop-color="#7599c2"/><stop offset=".055" stop-color="#7599c3"/><stop offset=".063" stop-color="#769ac3"/><stop offset=".07" stop-color="#769ac4"/><stop offset=".074" stop-color="#779bc4"/><stop offset=".078" stop-color="#779bc4"/><stop offset=".086" stop-color="#779cc4"/><stop offset=".094" stop-color="#789cc5"/><stop offset=".098" stop-color="#799dc5"/><stop offset=".102" stop-color="#799dc5"/><stop offset=".109" stop-color="#7a9ec6"/><stop offset=".117" stop-color="#7a9ec6"/><stop offset=".125" stop-color="#7b9ec7"/><stop offset=".133" stop-color="#7b9fc7"/><stop offset=".137" stop-color="#7c9fc8"/><stop offset=".141" stop-color="#7d9fc8"/><stop offset=".145" stop-color="#7da0c9"/><stop offset=".148" stop-color="#7da0c9"/><stop offset=".156" stop-color="#7ea0c9"/><stop offset=".164" stop-color="#7ea1ca"/><stop offset=".172" stop-color="#7fa1ca"/><stop offset=".18" stop-color="#7fa2cb"/><stop offset=".188" stop-color="#80a2cc"/><stop offset=".191" stop-color="#81a3cc"/><stop offset=".195" stop-color="#81a4cd"/><stop offset=".203" stop-color="#81a4cd"/><stop offset=".211" stop-color="#82a5ce"/><stop offset=".219" stop-color="#83a5ce"/><stop offset=".227" stop-color="#83a6ce"/><stop offset=".234" stop-color="#84a7ce"/><stop offset=".242" stop-color="#84a7cf"/><stop offset=".246" stop-color="#85a8d0"/><stop offset=".25" stop-color="#86a8d0"/><stop offset=".258" stop-color="#86a8d0"/><stop offset=".266" stop-color="#87a9d1"/><stop offset=".273" stop-color="#87a9d1"/><stop offset=".281" stop-color="#88aad2"/><stop offset=".285" stop-color="#89abd2"/><stop offset=".289" stop-color="#89acd3"/><stop offset=".293" stop-color="#8aacd3"/><stop offset=".297" stop-color="#8aacd4"/><stop offset=".301" stop-color="#8badd4"/><stop offset=".305" stop-color="#8badd4"/><stop offset=".313" stop-color="#8cadd5"/><stop offset=".32" stop-color="#8caed5"/><stop offset=".324" stop-color="#8dafd6"/><stop offset=".328" stop-color="#8eafd6"/><stop offset=".336" stop-color="#8eafd7"/><stop offset=".344" stop-color="#8fb0d7"/><stop offset=".352" stop-color="#8fb1d8"/><stop offset=".359" stop-color="#90b1d9"/><stop offset=".363" stop-color="#90b2d9"/><stop offset=".367" stop-color="#91b2d9"/><stop offset=".371" stop-color="#91b3d9"/><stop offset=".375" stop-color="#91b3d9"/><stop offset=".383" stop-color="#91b4d9"/><stop offset=".391" stop-color="#92b4da"/><stop offset=".395" stop-color="#92b4da"/><stop offset=".398" stop-color="#93b4db"/><stop offset=".406" stop-color="#93b4db"/><stop offset=".414" stop-color="#94b4dc"/><stop offset=".418" stop-color="#94b5dc"/><stop offset=".422" stop-color="#95b6dd"/><stop offset=".43" stop-color="#95b6dd"/><stop offset=".438" stop-color="#96b6dd"/><stop offset=".445" stop-color="#97b7de"/><stop offset=".453" stop-color="#97b8de"/><stop offset=".461" stop-color="#98b8df"/><stop offset=".469" stop-color="#98b9df"/><stop offset=".477" stop-color="#99b9e0"/><stop offset=".484" stop-color="#99bae0"/><stop offset=".488" stop-color="#9abbe1"/><stop offset=".492" stop-color="#9bbbe1"/><stop offset=".5" stop-color="#9bbce1"/><stop offset=".508" stop-color="#9cbce2"/><stop offset=".516" stop-color="#9cbde2"/><stop offset=".523" stop-color="#9dbde2"/><stop offset=".531" stop-color="#9ebee2"/><stop offset=".539" stop-color="#9ebfe3"/><stop offset=".547" stop-color="#9fbfe3"/><stop offset=".555" stop-color="#9fc0e4"/><stop offset=".563" stop-color="#a0c0e5"/><stop offset=".566" stop-color="#a1c1e5"/><stop offset=".57" stop-color="#a1c2e5"/><stop offset=".578" stop-color="#a2c2e5"/><stop offset=".586" stop-color="#a2c3e6"/><stop offset=".594" stop-color="#a3c3e7"/><stop offset=".602" stop-color="#a3c4e7"/><stop offset=".609" stop-color="#a4c4e8"/><stop offset=".617" stop-color="#a5c5e8"/><stop offset=".625" stop-color="#a5c6e9"/><stop offset=".633" stop-color="#a6c6ea"/><stop offset=".641" stop-color="#a6c6ea"/><stop offset=".648" stop-color="#a7c7ea"/><stop offset=".656" stop-color="#a7c7eb"/><stop offset=".664" stop-color="#a8c8eb"/><stop offset=".672" stop-color="#a9c9eb"/><stop offset=".676" stop-color="#aacaec"/><stop offset=".68" stop-color="#aacaed"/><stop offset=".688" stop-color="#abcaed"/><stop offset=".695" stop-color="#abcaed"/><stop offset=".703" stop-color="#accbed"/><stop offset=".711" stop-color="#accbed"/><stop offset=".719" stop-color="#adcced"/><stop offset=".727" stop-color="#adcdee"/><stop offset=".734" stop-color="#aecdee"/><stop offset=".742" stop-color="#afceee"/><stop offset=".75" stop-color="#afceee"/><stop offset=".758" stop-color="#b0cfef"/><stop offset=".766" stop-color="#b0cfef"/><stop offset=".773" stop-color="#b1d0ef"/><stop offset=".781" stop-color="#b1d0ef"/><stop offset=".789" stop-color="#b2d1ef"/><stop offset=".797" stop-color="#b3d2f0"/><stop offset=".805" stop-color="#b3d2f0"/><stop offset=".809" stop-color="#b4d3f0"/><stop offset=".813" stop-color="#b5d4f1"/><stop offset=".82" stop-color="#b5d4f1"/><stop offset=".828" stop-color="#b6d5f1"/><stop offset=".832" stop-color="#b6d6f1"/><stop offset=".836" stop-color="#b7d6f2"/><stop offset=".844" stop-color="#b7d7f2"/><stop offset=".848" stop-color="#b8d8f2"/><stop offset=".852" stop-color="#b9d8f2"/><stop offset=".859" stop-color="#b9d8f2"/><stop offset=".875" stop-color="#b9d9f3"/><stop offset=".883" stop-color="#bad9f3"/><stop offset=".887" stop-color="#bbdaf3"/><stop offset=".891" stop-color="#bbdaf3"/><stop offset=".898" stop-color="#bcdaf3"/><stop offset=".906" stop-color="#bddaf3"/><stop offset=".914" stop-color="#bddaf3"/><stop offset=".922" stop-color="#bedbf4"/><stop offset=".93" stop-color="#bedcf4"/><stop offset=".938" stop-color="#bfdcf4"/><stop offset=".945" stop-color="#bfddf4"/><stop offset=".953" stop-color="#c0def5"/><stop offset=".961" stop-color="#c1def5"/><stop offset=".969" stop-color="#c1def5"/><stop offset=".977" stop-color="#c2dff5"/><stop offset=".984" stop-color="#c2e0f5"/><stop offset=".992" stop-color="#c3e0f6"/><stop offset="1" stop-color="#c4e1f6"/></linearGradient><clipPath id="a"><path d="M 1234.878906 2713.449219 L 1303.871094 2713.449219 L 1303.871094 2978.519531 L 1234.878906 2978.519531 Z M 1234.878906 2713.449219"/></clipPath><clipPath id="c"><path d="M 1328.359375 2713.449219 L 1397.359375 2713.449219 L 1397.359375 2978.519531 L 1328.359375 2978.519531 Z M 1328.359375 2713.449219"/></clipPath><clipPath id="e"><path d="M 1234.878906 2595.671875 L 1303.871094 2595.671875 L 1303.871094 2664.429688 L 1234.878906 2664.429688 Z M 1234.878906 2672.609375 L 1303.871094 2672.609375 L 1303.871094 2713.449219 L 1234.878906 2713.449219 Z M 1234.878906 2672.609375"/></clipPath><clipPath id="g"><path d="M 1328.359375 2595.671875 L 1397.359375 2595.671875 L 1397.359375 2705.269531 L 1328.359375 2705.269531 Z M 1328.359375 2595.671875"/></clipPath><clipPath id="i"><path d="M 2618.242188 2251.605469 L 3037.554688 2251.605469 L 3037.554688 2374.929688 L 2618.242188 2374.929688 Z M 2618.242188 2251.605469"/></clipPath><clipPath id="k"><path d="M 1116.78125 1531.921875 L 1520.066406 1531.921875 L 1520.066406 2089.554688 L 1116.78125 2089.554688 Z M 1116.78125 1531.921875"/></clipPath></defs><g><g><path d="M 1978.617188 2251.609375 L 1731.734375 2251.609375 L 1731.734375 1086.113281 L 1978.617188 1086.113281 L 1978.617188 2251.609375" fill="#442e34"/></g><g><path d="M 2007.222656 1086.097656 L 1700.15625 1086.097656 L 1700.15625 1044.46875 L 2007.222656 1044.46875 L 2007.222656 1086.097656" fill="#921826"/></g><g><path d="M 1803.957031 1211.234375 L 1769.941406 1211.234375 L 1769.941406 1211.285156 L 1799.628906 1211.285156 L 1799.628906 1249.523438 L 1731.738281 1249.523438 L 1731.738281 1211.644531 L 1731.738281 1252.960938 L 1803.957031 1252.960938 L 1803.957031 1211.234375" fill="#544d5f"/></g><g><path d="M 1799.621094 1249.535156 L 1731.734375 1249.535156 L 1731.734375 1211.296875 L 1799.621094 1211.296875 L 1799.621094 1249.535156" fill="#fff"/></g><g><path d="M 1840.054688 1211.234375 L 1803.957031 1211.234375 L 1803.957031 1252.960938 L 1876.15625 1252.960938 L 1876.15625 1211.285156 L 1871.84375 1211.285156 L 1871.84375 1249.523438 L 1803.957031 1249.523438 L 1803.957031 1211.285156 L 1840.054688 1211.285156 L 1840.054688 1211.234375" fill="#544d5f"/></g><g><path d="M 1871.835938 1249.535156 L 1803.949219 1249.535156 L 1803.949219 1211.296875 L 1871.835938 1211.296875 L 1871.835938 1249.535156" fill="#fff"/></g><g><path d="M 1803.945312 1169.503906 L 1803.945312 1169.558594 L 1767.84375 1169.558594 L 1767.84375 1169.921875 L 1767.84375 1169.558594 L 1835.742188 1169.558594 L 1835.742188 1207.792969 L 1769.945312 1207.792969 L 1769.945312 1211.234375 L 1840.046875 1211.234375 L 1840.046875 1169.558594 L 1803.945312 1169.558594 L 1803.945312 1169.503906" fill="#544d5f"/></g><g><path d="M 1835.734375 1207.808594 L 1767.835938 1207.808594 L 1767.835938 1169.570312 L 1835.734375 1169.570312 L 1835.734375 1207.808594" fill="#fff"/></g><g><path d="M 1731.738281 1166.132812 L 1731.738281 1127.894531 L 1799.628906 1127.894531 L 1799.628906 1166.132812 Z M 1803.945312 1127.84375 L 1731.738281 1127.84375 L 1731.738281 1169.566406 L 1767.839844 1169.566406 L 1767.839844 1169.515625 L 1803.945312 1169.515625 L 1803.945312 1127.84375" fill="#544d5f"/></g><g><path d="M 1803.945312 1169.503906 L 1767.84375 1169.503906 L 1767.84375 1169.558594 L 1803.945312 1169.558594 L 1803.945312 1169.503906" fill="#5c5f77"/></g><g><path d="M 1799.632812 1166.128906 L 1731.742188 1166.128906 L 1731.742188 1127.890625 L 1799.632812 1127.890625 L 1799.632812 1166.128906" fill="#fff"/></g><g><path d="M 1803.945312 1166.132812 L 1803.945312 1127.894531 L 1871.835938 1127.894531 L 1871.835938 1166.132812 Z M 1876.152344 1127.84375 L 1803.945312 1127.84375 L 1803.945312 1169.515625 L 1840.046875 1169.515625 L 1840.046875 1169.566406 L 1876.152344 1169.566406 L 1876.152344 1127.84375" fill="#544d5f"/></g><g><path d="M 1840.046875 1169.503906 L 1803.945312 1169.503906 L 1803.945312 1169.558594 L 1840.046875 1169.558594 L 1840.046875 1169.503906" fill="#5c5f77"/></g><g><path d="M 1871.839844 1166.128906 L 1803.949219 1166.128906 L 1803.949219 1127.890625 L 1871.839844 1127.890625 L 1871.839844 1166.128906" fill="#fff"/></g><g><path d="M 1840.054688 1086.113281 L 1769.941406 1086.113281 L 1769.941406 1086.167969 L 1835.730469 1086.167969 L 1835.730469 1124.40625 L 1769.941406 1124.40625 L 1769.941406 1127.839844 L 1767.84375 1127.839844 L 1840.054688 1127.839844 L 1840.054688 1086.113281" fill="#544d5f"/></g><g><path d="M 1835.726562 1124.417969 L 1767.839844 1124.417969 L 1767.839844 1086.179688 L 1835.726562 1086.179688 L 1835.726562 1124.417969" fill="#fff"/></g><g><path d="M 1840.058594 1207.859375 L 1840.058594 1169.621094 L 1907.933594 1169.621094 L 1907.933594 1207.859375 Z M 1912.257812 1169.570312 L 1840.058594 1169.570312 L 1840.058594 1211.246094 L 1876.160156 1211.246094 L 1876.160156 1211.296875 L 1876.160156 1211.246094 L 1912.257812 1211.246094 L 1912.257812 1169.570312" fill="#544d5f"/></g><g><path d="M 1876.15625 1211.234375 L 1840.054688 1211.234375 L 1840.054688 1211.285156 L 1876.15625 1211.285156 L 1876.15625 1211.234375" fill="#5c5f77"/></g><g><path d="M 1907.9375 1207.855469 L 1840.058594 1207.855469 L 1840.058594 1169.617188 L 1907.9375 1169.617188 L 1907.9375 1207.855469" fill="#fff"/></g><g><path d="M 1948.359375 1169.570312 L 1912.257812 1169.570312 L 1912.257812 1211.246094 L 1948.359375 1211.246094 L 1948.359375 1211.296875 L 1978.625 1211.296875 L 1978.625 1207.859375 L 1912.257812 1207.859375 L 1912.257812 1169.621094 L 1948.359375 1169.621094 L 1948.359375 1169.570312" fill="#544d5f"/></g><g><path d="M 1980.15625 1207.855469 L 1912.261719 1207.855469 L 1912.261719 1169.617188 L 1980.15625 1169.617188 L 1980.15625 1207.855469" fill="#fff"/></g><g><path d="M 1876.152344 1166.132812 L 1876.152344 1127.894531 L 1944.046875 1127.894531 L 1944.046875 1166.132812 Z M 1948.363281 1127.84375 L 1876.152344 1127.84375 L 1876.152344 1169.566406 L 1948.363281 1169.566406 L 1948.363281 1127.84375" fill="#544d5f"/></g><g><path d="M 1944.046875 1166.128906 L 1876.15625 1166.128906 L 1876.15625 1127.890625 L 1944.046875 1127.890625 L 1944.046875 1166.128906" fill="#fff"/></g><g><path d="M 1912.261719 1086.113281 L 1840.054688 1086.113281 L 1840.054688 1127.839844 L 1912.261719 1127.839844 L 1912.261719 1086.113281" fill="#544d5f"/></g><g><path d="M 1907.9375 1124.402344 L 1840.0625 1124.402344 L 1840.0625 1086.164062 L 1907.9375 1086.164062 L 1907.9375 1124.402344" fill="#fff"/></g><g><path d="M 1980.15625 1086.113281 L 1912.261719 1086.113281 L 1978.617188 1086.113281 L 1978.617188 1127.839844 L 1980.15625 1127.839844 L 1980.15625 1086.113281" fill="#7e9e38"/></g><g><path d="M 1978.617188 1086.113281 L 1912.261719 1086.113281 L 1912.261719 1127.839844 L 1978.617188 1127.839844 L 1978.617188 1086.113281" fill="#544d5f"/></g><g><path d="M 1980.15625 1124.402344 L 1912.261719 1124.402344 L 1912.261719 1086.164062 L 1980.15625 1086.164062 L 1980.15625 1124.402344" fill="#fff"/></g><g><path d="M 1912.253906 1211.234375 L 1912.253906 1211.285156 L 1876.15625 1211.285156 L 1876.15625 1252.960938 L 1948.371094 1252.960938 L 1948.371094 1211.285156 L 1912.253906 1211.285156 L 1912.253906 1211.234375" fill="#544d5f"/></g><g><path d="M 1912.253906 1211.234375 L 1876.15625 1211.234375 L 1876.15625 1211.285156 L 1912.253906 1211.285156 L 1912.253906 1211.234375" fill="#5c5f77"/></g><g><path d="M 1948.371094 1211.234375 L 1912.253906 1211.234375 L 1912.253906 1211.285156 L 1948.371094 1211.285156 L 1948.371094 1211.234375" fill="#5c5f77"/></g><g><path d="M 1944.050781 1249.535156 L 1876.164062 1249.535156 L 1876.164062 1211.296875 L 1944.050781 1211.296875 L 1944.050781 1249.535156" fill="#fff"/></g><g><path d="M 1980.152344 1211.65625 L 1978.613281 1211.65625 L 1978.613281 1253.378906 L 1980.152344 1253.378906 L 1980.152344 1211.65625" fill="#7e9e38"/></g><g><path d="M 1978.613281 1211.65625 L 1948.367188 1211.65625 L 1948.367188 1252.96875 L 1948.351562 1252.96875 L 1948.351562 1253.378906 L 1978.613281 1253.378906 L 1978.613281 1211.65625" fill="#544d5f"/></g><g><path d="M 1948.367188 1211.65625 L 1948.351562 1211.65625 L 1948.351562 1252.96875 L 1948.367188 1252.96875 L 1948.367188 1211.65625" fill="#5c5f77"/></g><g><path d="M 1980.152344 1249.9375 L 1948.367188 1249.9375 L 1948.367188 1211.707031 L 1980.152344 1211.707031 L 1980.152344 1249.9375" fill="#fff"/></g><g><path d="M 1978.617188 1128.25 L 1948.367188 1128.25 L 1948.367188 1169.5625 L 1978.617188 1169.5625 L 1978.617188 1128.25" fill="#544d5f"/></g><g><path d="M 1978.625 1169.570312 L 1948.359375 1169.570312 L 1948.359375 1169.621094 L 1978.625 1169.621094 L 1978.625 1169.570312" fill="#5c5f77"/></g><g><path d="M 1978.628906 1169.617188 L 1948.359375 1169.617188 L 1948.359375 1169.964844 L 1978.628906 1169.964844 L 1978.628906 1169.617188" fill="#b5b8c5"/></g><g><path d="M 1980.140625 1166.546875 L 1948.359375 1166.546875 L 1948.359375 1128.316406 L 1980.140625 1128.316406 L 1980.140625 1166.546875" fill="#fff"/></g><g><path d="M 1731.730469 1169.929688 L 1731.671875 1169.929688 L 1731.671875 1211.652344 L 1731.730469 1211.652344 L 1731.730469 1169.929688" fill="#7e9e38"/></g><g><path d="M 1767.839844 1169.929688 L 1731.730469 1169.929688 L 1731.730469 1211.652344 L 1731.730469 1211.25 L 1769.941406 1211.25 L 1767.839844 1211.25 L 1767.839844 1169.929688" fill="#544d5f"/></g><g><path d="M 1769.941406 1211.234375 L 1731.738281 1211.234375 L 1731.738281 1211.644531 L 1731.738281 1211.285156 L 1769.941406 1211.285156 L 1769.941406 1211.234375" fill="#5c5f77"/></g><g><path d="M 1769.9375 1211.296875 L 1731.734375 1211.296875 L 1731.734375 1211.65625 L 1769.9375 1211.65625 L 1769.9375 1211.296875" fill="#b5b8c5"/></g><g><path d="M 1767.839844 1169.929688 L 1767.839844 1211.25 L 1769.941406 1211.25 L 1769.941406 1207.8125 L 1767.839844 1207.8125 L 1767.839844 1169.929688" fill="#5c5f77"/></g><g><path d="M 1769.941406 1169.929688 L 1767.839844 1169.929688 L 1767.839844 1207.8125 L 1769.941406 1207.8125 L 1769.941406 1169.929688" fill="#b5b8c5"/></g><g><path d="M 1767.652344 1208.210938 L 1731.679688 1208.210938 L 1731.679688 1169.976562 L 1767.652344 1169.976562 L 1767.652344 1208.210938" fill="#fff"/></g><g><path d="M 1767.84375 1086.113281 L 1731.675781 1086.113281 L 1731.675781 1127.839844 L 1731.734375 1127.839844 L 1731.734375 1086.113281 L 1767.84375 1086.113281" fill="#7e9e38"/></g><g><path d="M 1767.84375 1086.113281 L 1731.734375 1086.113281 L 1731.734375 1127.839844 L 1767.84375 1127.839844 L 1767.84375 1086.113281" fill="#544d5f"/></g><g><path d="M 1769.941406 1086.113281 L 1767.84375 1086.113281 L 1767.84375 1127.839844 L 1769.941406 1127.839844 L 1769.941406 1124.40625 L 1767.84375 1124.40625 L 1767.84375 1086.167969 L 1769.941406 1086.167969 L 1769.941406 1086.113281" fill="#5c5f77"/></g><g><path d="M 1769.933594 1086.179688 L 1767.839844 1086.179688 L 1767.839844 1124.417969 L 1769.933594 1124.417969 L 1769.933594 1086.179688" fill="#b5b8c5"/></g><g><path d="M 1767.65625 1124.402344 L 1731.679688 1124.402344 L 1731.679688 1086.164062 L 1767.65625 1086.164062 L 1767.65625 1124.402344" fill="#fff"/></g><g><path d="M 3597.492188 3126.738281 C 3597.492188 3160.25 3570.324219 3187.410156 3536.820312 3187.410156 L 425.625 3187.410156 C 392.121094 3187.410156 364.957031 3160.25 364.957031 3126.738281 C 364.957031 3093.234375 392.121094 3066.070312 425.625 3066.070312 L 3536.820312 3066.070312 C 3570.324219 3066.070312 3597.492188 3093.234375 3597.492188 3126.738281" fill="#57627f"/></g><g><path d="M 2098.203125 3067.511719 L 3495.714844 3067.511719 L 3495.714844 1824.871094 L 2098.203125 1824.871094 L 2098.203125 3067.511719" fill="#bfac93"/></g><g><path d="M 2098.203125 2333.800781 L 2241.804688 2313.035156 L 2827.710938 1804.5 L 3401.972656 2313.039062 L 3495.714844 2364.191406 L 3495.714844 1824.871094 L 2098.203125 1824.871094 L 2098.203125 2333.800781" fill="#442e34"/></g><g><path d="M 3602.121094 1819.070312 L 1042.230469 1819.070312 L 1195.34375 1253.394531 L 3005.316406 1253.394531 L 3602.121094 1819.070312" fill="#921826"/></g><g><path d="M 2099.289062 3066.066406 L 540.773438 3066.066406 L 540.773438 1787.421875 L 2099.289062 1787.421875 L 2099.289062 3066.066406" fill="#442e34"/></g><g><path d="M 540.773438 2364.1875 L 2099.292969 2364.1875 L 2099.292969 3066.066406 L 540.773438 3066.066406 L 540.773438 2364.1875" fill="#bfac93"/></g><g><path d="M 1459.878906 3026.726562 L 1173.289062 3026.726562 L 1173.289062 2548.929688 L 1459.878906 2548.929688 L 1459.878906 3026.726562" fill="#fff"/></g><g><path d="M 1435.191406 3004.203125 L 1197.988281 3004.203125 L 1197.988281 2563.289062 L 1435.191406 2563.289062 L 1435.191406 3004.203125" fill="#65708d"/></g><g><path d="M 1310.328125 2985.121094 L 1228.421875 2985.121094 L 1228.421875 2590.78125 L 1310.328125 2590.78125 L 1310.328125 2985.121094" fill="#fff"/></g><g><path d="M 1403.808594 2985.121094 L 1321.898438 2985.121094 L 1321.898438 2590.78125 L 1403.808594 2590.78125 L 1403.808594 2985.121094" fill="#fff"/></g><g clip-path="url(#a)"><path d="M 1120.101562 2912.253906 L 1252.128906 2683.578125 L 1418.648438 2779.71875 L 1286.621094 3008.394531 Z M 1120.101562 2912.253906" fill="url(#b)"/></g><g clip-path="url(#c)"><path d="M 1213.582031 2912.253906 L 1345.609375 2683.570312 L 1512.136719 2779.71875 L 1380.109375 3008.398438 Z M 1213.582031 2912.253906" fill="url(#d)"/></g><g><path d="M 1308.359375 2672.609375 L 1228.421875 2672.609375 L 1228.421875 2664.429688 L 1308.359375 2664.429688 L 1308.359375 2672.609375" fill="#fff"/></g><g><path d="M 1308.359375 2749.710938 L 1228.421875 2749.710938 L 1228.421875 2741.53125 L 1308.359375 2741.53125 L 1308.359375 2749.710938" fill="#fff"/></g><g><path d="M 1308.511719 2828.070312 L 1228.570312 2828.070312 L 1228.570312 2819.890625 L 1308.511719 2819.890625 L 1308.511719 2828.070312" fill="#fff"/></g><g><path d="M 1402.75 2713.449219 L 1322.808594 2713.449219 L 1322.808594 2705.269531 L 1402.75 2705.269531 L 1402.75 2713.449219" fill="#fff"/></g><g><path d="M 1402.75 2790.550781 L 1322.808594 2790.550781 L 1322.808594 2782.378906 L 1402.75 2782.378906 L 1402.75 2790.550781" fill="#fff"/></g><g><path d="M 1402.898438 2868.921875 L 1322.960938 2868.921875 L 1322.960938 2860.738281 L 1402.898438 2860.738281 L 1402.898438 2868.921875" fill="#fff"/></g><g><path d="M 1427.660156 2797.5 C 1427.660156 2800.601562 1421.488281 2803.121094 1413.878906 2803.121094 C 1406.269531 2803.121094 1400.101562 2800.601562 1400.101562 2797.5 C 1400.101562 2794.390625 1406.269531 2791.871094 1413.878906 2791.871094 C 1421.488281 2791.871094 1427.660156 2794.390625 1427.660156 2797.5" fill="#fff"/></g><g><path d="M 549.097656 1829.574219 L 1379.453125 1037.71875 L 2209.808594 1829.574219 L 549.097656 1829.574219" fill="#442e34"/></g><g><path d="M 3052.550781 1296.152344 L 1559.324219 1296.152344 L 1577.71875 1253.378906 L 3006.367188 1253.378906 L 3052.550781 1296.152344" fill="#fff"/></g><g><path d="M 1364.613281 1092.515625 L 1331.355469 1062.363281 L 443.152344 1867.511719 L 509.679688 1867.511719 L 1364.613281 1092.515625" fill="#908cac"/></g><g><path d="M 1367.113281 1028.101562 L 1331.164062 995.4375 L 371.261719 1867.496094 L 443.15625 1867.496094 L 1367.113281 1028.101562" fill="#fff"/></g><g><path d="M 2238.839844 1816.464844 L 2236.125 1816.464844 L 2238.425781 1818.558594 L 2247.445312 1818.558594 L 2247.417969 1818.53125 L 2241.171875 1818.558594 L 2238.839844 1816.464844" fill="#611a26"/></g><g><path d="M 2270.59375 1842.027344 L 2264.25 1842.027344 L 2273.042969 1850.011719 L 2278.480469 1850.011719 Z M 2166.121094 1829.585938 L 2101.34375 1829.585938 L 2101.34375 1850.011719 L 2201.152344 1850.011719 L 2192.359375 1842.027344 L 2166.121094 1842.027344 L 2166.121094 1829.585938" fill="#3a282c"/></g><g><path d="M 2209.515625 2317.707031 L 2151.796875 2326.054688 L 2165.921875 2355.730469 L 2165.960938 2355.808594 L 2209.515625 2317.707031" fill="#76635c"/></g><g><path d="M 2284.710938 1856.300781 L 2279.996094 1856.300781 L 2297.027344 1871.769531 L 2225.121094 1871.769531 L 2208.089844 1856.300781 L 2099.292969 1856.300781 L 2099.292969 1870.378906 L 2114.855469 1870.378906 L 2114.855469 1955.582031 L 2099.292969 1955.582031 L 2099.292969 1968.648438 L 2114.855469 1968.648438 L 2114.855469 2056.453125 L 2099.292969 2056.453125 L 2099.292969 2071.679688 L 2114.855469 2071.679688 L 2114.855469 2157.511719 L 2099.292969 2157.511719 L 2099.292969 2215.75 L 2151.808594 2326.035156 L 2209.53125 2317.695312 L 2494.273438 2068.589844 L 2284.710938 1856.300781" fill="#3a282c"/></g><g><path d="M 2099.28125 2157.527344 L 2097.335938 2157.527344 L 2097.191406 2211.355469 L 2099.28125 2215.761719 Z M 2099.28125 2056.472656 L 2097.585938 2056.472656 L 2097.546875 2071.6875 L 2099.28125 2071.6875 Z M 2099.28125 1955.585938 L 2097.847656 1955.585938 L 2097.808594 1968.660156 L 2099.28125 1968.660156 Z M 2099.28125 1856.304688 L 2098.097656 1856.304688 L 2098.058594 1870.390625 L 2099.28125 1870.390625 L 2099.28125 1856.304688" fill="#3a282c"/></g><g><path d="M 2166.132812 1828 L 2101.363281 1828 L 2101.363281 1829.582031 L 2166.132812 1829.582031 Z M 2164.230469 1816.453125 L 2098.214844 1816.453125 L 2098.203125 1821.703125 L 2166.132812 1821.703125 L 2166.132812 1818.554688 L 2166.546875 1818.554688 L 2164.230469 1816.453125" fill="#3a282c"/></g><g><path d="M 3602.121094 1842.023438 L 2166.125 1842.023438 L 2166.125 1818.5625 L 3602.121094 1818.5625 L 3602.121094 1842.023438" fill="#fff"/></g><g><path d="M 3211.164062 3064.253906 L 2421.394531 3064.253906 L 2421.394531 2480.328125 L 3211.164062 2480.328125 L 3211.164062 3064.253906" fill="#fff"/></g><g><path d="M 2193.375 2412.453125 L 437.324219 2412.453125 L 553.445312 2213.609375 L 2097.203125 2213.609375 L 2193.375 2412.453125" fill="#921826"/></g><g><path d="M 2846.910156 1834.269531 L 2821.445312 1811.808594 L 2141.609375 2411.984375 L 2192.539062 2411.984375 L 2846.910156 1834.269531" fill="#908cac"/></g><g><path d="M 2848.816406 1786.261719 L 2821.308594 1761.914062 L 2086.59375 2411.984375 L 2141.609375 2411.984375 L 2848.816406 1786.261719" fill="#fff"/></g><g><path d="M 2802.25 1837.457031 L 2827.707031 1814.992188 L 3507.546875 2415.167969 L 3456.636719 2415.167969 L 2802.25 1837.457031" fill="#908cac"/></g><g><path d="M 2798.359375 1789.441406 L 2825.863281 1765.109375 L 3560.589844 2415.167969 L 3505.5625 2415.167969 L 2798.359375 1789.441406" fill="#fff"/></g><g><path d="M 3190.269531 3064.824219 L 2442.296875 3064.824219 L 2442.296875 2513.359375 L 3190.269531 2513.359375 L 3190.269531 3064.824219" fill="#442e34"/></g><g><path d="M 2061.28125 2460.210938 L 566.84375 2460.210938 L 1026.1875 2713.445312 L 1173.296875 2713.445312 L 1173.296875 2548.933594 L 1459.878906 2548.933594 L 1459.878906 2713.445312 L 2061.28125 2713.445312 L 2061.28125 2460.210938" fill="#8d786e"/></g><g><path d="M 1459.878906 2548.929688 L 1173.289062 2548.929688 L 1173.289062 2713.449219 L 1197.988281 2713.449219 L 1197.988281 2563.289062 L 1435.191406 2563.289062 L 1435.191406 2713.449219 L 1459.878906 2713.449219 L 1459.878906 2548.929688" fill="#b5abac"/></g><g><path d="M 1435.191406 2563.289062 L 1197.988281 2563.289062 L 1197.988281 2713.449219 L 1228.421875 2713.449219 L 1228.421875 2590.78125 L 1310.328125 2590.78125 L 1310.328125 2713.449219 L 1321.898438 2713.449219 L 1321.898438 2590.78125 L 1403.808594 2590.78125 L 1403.808594 2713.449219 L 1435.191406 2713.449219 L 1435.191406 2563.289062" fill="#575468"/></g><g><path d="M 1310.328125 2590.78125 L 1228.421875 2590.78125 L 1228.421875 2713.449219 L 1234.878906 2713.449219 L 1234.878906 2672.609375 L 1228.421875 2672.609375 L 1228.421875 2664.429688 L 1234.878906 2664.429688 L 1234.878906 2595.671875 L 1303.871094 2595.671875 L 1303.871094 2664.429688 L 1308.359375 2664.429688 L 1308.359375 2672.609375 L 1303.871094 2672.609375 L 1303.871094 2713.449219 L 1310.328125 2713.449219 L 1310.328125 2590.78125" fill="#b5abac"/></g><g><path d="M 1403.808594 2590.78125 L 1321.898438 2590.78125 L 1321.898438 2713.449219 L 1322.808594 2713.449219 L 1322.808594 2705.269531 L 1328.359375 2705.269531 L 1328.359375 2595.671875 L 1397.359375 2595.671875 L 1397.359375 2705.269531 L 1402.75 2705.269531 L 1402.75 2713.449219 L 1403.808594 2713.449219 L 1403.808594 2590.78125" fill="#b5abac"/></g><g clip-path="url(#e)"><path d="M 1183.878906 2684.003906 L 1252.128906 2565.796875 L 1354.871094 2625.113281 L 1286.621094 2743.324219 Z M 1183.878906 2684.003906" fill="url(#f)"/></g><g clip-path="url(#g)"><path d="M 1280.902344 2677.871094 L 1345.609375 2565.792969 L 1444.816406 2623.070312 L 1380.109375 2735.148438 Z M 1280.902344 2677.871094" fill="url(#h)"/></g><g><path d="M 1308.359375 2664.429688 L 1228.421875 2664.429688 L 1228.421875 2672.609375 L 1308.359375 2672.609375 L 1308.359375 2664.429688" fill="#b5abac"/></g><g><path d="M 1402.75 2705.269531 L 1322.808594 2705.269531 L 1322.808594 2713.449219 L 1402.75 2713.449219 L 1402.75 2705.269531" fill="#b5abac"/></g><g><path d="M 1306.257812 1096.777344 L 1339.523438 1066.636719 L 2227.71875 1871.78125 L 2161.207031 1871.78125 L 1306.257812 1096.777344" fill="#908cac"/></g><g><path d="M 1301.167969 1032.378906 L 1337.113281 999.722656 L 2297.015625 1871.773438 L 2225.117188 1871.773438 L 1301.167969 1032.378906" fill="#fff"/></g><g><path d="M 540.773438 1871.773438 L 539.996094 1871.773438 L 539.996094 1956.980469 L 540.773438 1956.980469 L 540.773438 1871.773438" fill="#7e9e38"/></g><g><path d="M 687.429688 1871.773438 L 540.773438 1871.773438 L 540.773438 1956.980469 L 687.429688 1956.980469 L 687.429688 1871.773438" fill="#544d5f"/></g><g><path d="M 679.027344 1948.574219 L 540.410156 1948.574219 L 540.410156 1870.503906 L 679.027344 1870.503906 L 679.027344 1948.574219" fill="#fff"/></g><g><path d="M 540.773438 1970.046875 L 539.996094 1970.046875 L 539.996094 2057.859375 L 540.773438 2057.859375 L 540.773438 1970.046875" fill="#7e9e38"/></g><g><path d="M 687.429688 1970.046875 L 540.773438 1970.046875 L 540.773438 2057.859375 L 687.429688 2057.859375 L 687.429688 1970.046875" fill="#544d5f"/></g><g><path d="M 679.027344 2048.121094 L 540.410156 2048.121094 L 540.410156 1970.046875 L 679.027344 1970.046875 L 679.027344 2048.121094" fill="#fff"/></g><g><path d="M 540.769531 2073.078125 L 539.992188 2073.078125 L 539.992188 2158.914062 L 540.769531 2158.914062 L 540.769531 2073.078125" fill="#7e9e38"/></g><g><path d="M 687.425781 2073.078125 L 540.769531 2073.078125 L 540.769531 2158.914062 L 687.425781 2158.914062 L 687.425781 2073.078125" fill="#544d5f"/></g><g><path d="M 679.027344 2151.148438 L 540.40625 2151.148438 L 540.40625 2073.078125 L 679.027344 2073.078125 L 679.027344 2151.148438" fill="#fff"/></g><g><path d="M 2098.058594 1870.390625 L 1967.40625 1870.390625 L 1967.40625 1955.585938 L 2097.851562 1955.585938 L 2098.058594 1870.390625" fill="#544d5f"/></g><g><path d="M 2114.847656 1870.390625 L 2099.289062 1870.390625 L 2099.289062 1955.585938 L 2114.847656 1955.585938 L 2114.847656 1870.390625" fill="#4f4a5b"/></g><g><path d="M 2099.289062 1870.390625 L 2098.058594 1870.390625 L 2097.851562 1955.585938 L 2099.289062 1955.585938 L 2099.289062 1870.390625" fill="#4f4a5b"/></g><g><path d="M 2097.808594 1968.664062 L 1967.410156 1968.664062 L 1967.410156 2056.476562 L 2097.589844 2056.476562 L 2097.808594 1968.664062" fill="#544d5f"/></g><g><path d="M 2114.84375 1968.660156 L 2099.285156 1968.660156 L 2099.285156 2056.472656 L 2114.84375 2056.472656 L 2114.84375 1968.660156" fill="#4f4a5b"/></g><g><path d="M 2099.292969 1968.65625 L 2097.824219 1968.65625 L 2097.59375 2056.464844 L 2099.292969 2056.464844 L 2099.292969 1968.65625" fill="#4f4a5b"/></g><g><path d="M 2097.550781 2071.683594 L 1967.410156 2071.683594 L 1967.410156 2157.527344 L 2097.332031 2157.527344 L 2097.550781 2071.683594" fill="#544d5f"/></g><g><path d="M 2114.84375 2071.679688 L 2099.285156 2071.679688 L 2099.285156 2157.515625 L 2114.84375 2157.515625 L 2114.84375 2071.679688" fill="#4f4a5b"/></g><g><path d="M 2099.292969 2071.675781 L 2097.554688 2071.675781 L 2097.335938 2157.515625 L 2099.292969 2157.515625 L 2099.292969 2071.675781" fill="#4f4a5b"/></g><g><path d="M 2106.019531 1948.574219 L 1967.40625 1948.574219 L 1967.40625 1870.503906 L 2106.019531 1870.503906 L 2106.019531 1948.574219" fill="#fff"/></g><g><path d="M 2106.023438 2048.128906 L 1967.414062 2048.128906 L 1967.414062 1970.050781 L 2106.023438 1970.050781 L 2106.023438 2048.128906" fill="#fff"/></g><g><path d="M 2106.023438 2151.15625 L 1967.414062 2151.15625 L 1967.414062 2073.078125 L 2106.023438 2073.078125 L 2106.023438 2151.15625" fill="#fff"/></g><g><path d="M 1664.621094 1296.15625 L 1663.527344 1296.15625 L 2238.847656 1816.457031 L 2245.367188 1816.457031 L 2247.425781 1818.527344 L 2510.628906 1817.449219 L 1664.621094 1296.15625" fill="#741726"/></g><g><path d="M 1661.203125 1294.054688 L 1663.527344 1296.144531 L 1664.621094 1296.144531 L 1661.203125 1294.054688" fill="#c2bbbc"/></g><g><path d="M 2245.386719 1816.453125 L 2238.851562 1816.453125 L 2241.183594 1818.546875 L 2247.425781 1818.519531 L 2245.386719 1816.453125" fill="#521c26"/></g><g><path d="M 1462.460938 3036.050781 L 1170.238281 3036.050781 L 1170.238281 3004.351562 L 1462.460938 3004.351562 L 1462.460938 3036.050781" fill="#e8e2f3"/></g><g><path d="M 1501 3067.507812 L 1136.78125 3067.507812 L 1136.78125 3035.8125 L 1501 3035.8125 L 1501 3067.507812" fill="#e8e2f3"/></g><g><path d="M 1462.160156 3035.355469 L 1170.230469 3035.355469 L 1170.230469 3029.65625 L 1462.160156 3029.65625 L 1462.160156 3035.355469" fill="#fff"/></g><g><path d="M 1105.503906 2399.375 L 1320.03125 2249.511719 L 1534.554688 2399.375 L 1105.503906 2399.375" fill="#442e34"/></g><g><path d="M 3190.269531 2916.167969 L 2442.375 2916.167969 L 2442.375 2909.867188 L 3190.269531 2909.867188 L 3190.269531 2916.167969" fill="#bfac93"/></g><g><path d="M 3600.652344 1856.300781 L 2095.058594 1856.300781 L 2095.058594 1821.707031 L 3600.652344 1821.707031 Z M 2101.363281 1850 L 3594.359375 1850 L 3594.359375 1828.007812 L 2101.363281 1828.007812 L 2101.363281 1850" fill="#bfac93"/></g><g><path d="M 3190.269531 2886.070312 L 2442.6875 2886.070312 L 2442.6875 2879.769531 L 3190.269531 2879.769531 L 3190.269531 2886.070312" fill="#bfac93"/></g><g><path d="M 3190.269531 2854.261719 L 2442.375 2854.261719 L 2442.375 2847.960938 L 3190.269531 2847.960938 L 3190.269531 2854.261719" fill="#bfac93"/></g><g><path d="M 3190.269531 2819.058594 L 2442.375 2819.058594 L 2442.375 2812.757812 L 3190.269531 2812.757812 L 3190.269531 2819.058594" fill="#bfac93"/></g><g><path d="M 3190.269531 2788.96875 L 2442.375 2788.96875 L 2442.375 2782.667969 L 3190.269531 2782.667969 L 3190.269531 2788.96875" fill="#bfac93"/></g><g><path d="M 3191.3125 2757.160156 L 2442.371094 2757.160156 L 2442.371094 2750.855469 L 3191.3125 2750.855469 L 3191.3125 2757.160156" fill="#bfac93"/></g><g><path d="M 3190.269531 2694.714844 L 2442.375 2694.714844 L 2442.375 2688.414062 L 3190.269531 2688.414062 L 3190.269531 2694.714844" fill="#bfac93"/></g><g><path d="M 3190.269531 2662.90625 L 2442.375 2662.90625 L 2442.375 2656.605469 L 3190.269531 2656.605469 L 3190.269531 2662.90625" fill="#bfac93"/></g><g><path d="M 3190.269531 2726.527344 L 2442.296875 2726.527344 L 2442.296875 2720.226562 L 3190.269531 2720.226562 L 3190.269531 2726.527344" fill="#bfac93"/></g><g><path d="M 3190.269531 2632.441406 L 2442.6875 2632.441406 L 2442.6875 2626.140625 L 3190.269531 2626.140625 L 3190.269531 2632.441406" fill="#bfac93"/></g><g><path d="M 3190.269531 2567.898438 L 2442.6875 2567.898438 L 2442.6875 2561.601562 L 3190.269531 2561.601562 L 3190.269531 2567.898438" fill="#bfac93"/></g><g><path d="M 3190.269531 2538.191406 L 2442.6875 2538.191406 L 2442.6875 2531.890625 L 3190.269531 2531.890625 L 3190.269531 2538.191406" fill="#bfac93"/></g><g><path d="M 3191.3125 2601.816406 L 2442.605469 2601.816406 L 2442.605469 2595.511719 L 3191.3125 2595.511719 L 3191.3125 2601.816406" fill="#bfac93"/></g><g><path d="M 3191.621094 3036.660156 L 2442.277344 3036.660156 L 2442.277344 3030.359375 L 3191.621094 3030.359375 L 3191.621094 3036.660156" fill="#bfac93"/></g><g><path d="M 3191.441406 2974.214844 L 2441.375 2974.214844 L 2441.375 2967.914062 L 3191.441406 2967.914062 L 3191.441406 2974.214844" fill="#bfac93"/></g><g><path d="M 3191.621094 2942.40625 L 2442.6875 2942.40625 L 2442.6875 2936.105469 L 3191.621094 2936.105469 L 3191.621094 2942.40625" fill="#bfac93"/></g><g><path d="M 3191.539062 3006.027344 L 2441.292969 3006.027344 L 2441.292969 2999.726562 L 3191.539062 2999.726562 L 3191.539062 3006.027344" fill="#bfac93"/></g><g><path d="M 2823.589844 1856.308594 L 2821.964844 1856.308594 L 2194.917969 2409.882812 L 2421.386719 2409.882812 L 2940 1959.082031 L 2939.113281 1958.304688 L 2823.589844 1856.308594" fill="#8d786e"/></g><g><path d="M 2821.953125 1856.300781 L 2821.675781 1856.300781 L 2192.535156 2409.882812 L 2194.910156 2409.882812 L 2821.953125 1856.300781" fill="#6f657d"/></g><g><path d="M 2824.003906 1856.300781 L 2823.589844 1856.300781 L 2939.117188 1958.304688 L 2824.003906 1856.300781" fill="#6f657d"/></g><g><path d="M 2822.847656 1855.277344 L 2821.6875 1856.300781 L 2824.007812 1856.300781 L 2822.847656 1855.277344" fill="#8d786e"/></g><g><path d="M 1112.628906 3028.039062 L 1059.769531 3028.039062 L 1059.769531 2463.441406 L 1112.628906 2463.441406 L 1112.628906 3028.039062" fill="#442e34"/></g><g><path d="M 695.554688 3040.765625 L 672.019531 3040.765625 L 672.019531 2831.910156 L 695.554688 2831.910156 L 695.554688 3040.765625" fill="#442e34"/></g><g><path d="M 775.769531 3040.765625 L 752.234375 3040.765625 L 752.234375 2831.910156 L 775.769531 2831.910156 L 775.769531 3040.765625" fill="#442e34"/></g><g><path d="M 860.871094 3040.765625 L 837.335938 3040.765625 L 837.335938 2831.910156 L 860.871094 2831.910156 L 860.871094 3040.765625" fill="#442e34"/></g><g><path d="M 940.332031 3040.765625 L 916.796875 3040.765625 L 916.796875 2831.910156 L 940.332031 2831.910156 L 940.332031 3040.765625" fill="#442e34"/></g><g><path d="M 1026.191406 3040.765625 L 1002.648438 3040.765625 L 1002.648438 2831.910156 L 1026.191406 2831.910156 L 1026.191406 3040.765625" fill="#442e34"/></g><g><path d="M 1059.769531 2843.671875 L 602.105469 2843.671875 L 602.105469 2820.140625 L 1059.769531 2820.140625 L 1059.769531 2843.671875" fill="#442e34"/></g><g><path d="M 627.9375 3028.273438 L 575.070312 3028.273438 L 575.070312 2463.671875 L 627.9375 2463.671875 L 627.9375 3028.273438" fill="#442e34"/></g><g><path d="M 1112.628906 3068.53125 L 567.21875 3068.53125 L 567.21875 3028.105469 L 1112.628906 3028.105469 L 1112.628906 3068.53125" fill="#442e34"/></g><g><path d="M 646.667969 2487.949219 L 556.339844 2487.949219 L 556.339844 2463.378906 L 646.667969 2463.378906 L 646.667969 2487.949219" fill="#442e34"/></g><g><path d="M 635.789062 2512.53125 L 567.21875 2512.53125 L 567.21875 2487.949219 L 635.789062 2487.949219 L 635.789062 2512.53125" fill="#442e34"/></g><g><path d="M 1131.359375 2487.949219 L 1041.03125 2487.949219 L 1041.03125 2463.378906 L 1131.359375 2463.378906 L 1131.359375 2487.949219" fill="#442e34"/></g><g><path d="M 1120.480469 2512.53125 L 1051.910156 2512.53125 L 1051.910156 2487.949219 L 1120.480469 2487.949219 L 1120.480469 2512.53125" fill="#442e34"/></g><g><path d="M 2137.664062 3024.863281 L 2084.800781 3024.863281 L 2084.800781 2460.265625 L 2137.664062 2460.265625 L 2137.664062 3024.863281" fill="#442e34"/></g><g><path d="M 1720.59375 3037.582031 L 1697.066406 3037.582031 L 1697.066406 2828.726562 L 1720.59375 2828.726562 L 1720.59375 3037.582031" fill="#442e34"/></g><g><path d="M 1800.808594 3037.585938 L 1777.277344 3037.585938 L 1777.277344 2828.722656 L 1800.808594 2828.722656 L 1800.808594 3037.585938" fill="#442e34"/></g><g><path d="M 1885.910156 3037.585938 L 1862.375 3037.585938 L 1862.375 2828.722656 L 1885.910156 2828.722656 L 1885.910156 3037.585938" fill="#442e34"/></g><g><path d="M 1965.371094 3037.585938 L 1941.835938 3037.585938 L 1941.835938 2828.726562 L 1965.371094 2828.726562 L 1965.371094 3037.585938" fill="#442e34"/></g><g><path d="M 2051.222656 3037.585938 L 2027.691406 3037.585938 L 2027.691406 2828.726562 L 2051.222656 2828.726562 L 2051.222656 3037.585938" fill="#442e34"/></g><g><path d="M 2084.800781 2840.496094 L 1627.144531 2840.496094 L 1627.144531 2816.960938 L 2084.800781 2816.960938 L 2084.800781 2840.496094" fill="#442e34"/></g><g><path d="M 1652.984375 3025.089844 L 1600.117188 3025.089844 L 1600.117188 2460.484375 L 1652.984375 2460.484375 L 1652.984375 3025.089844" fill="#442e34"/></g><g><path d="M 2137.664062 3065.351562 L 1592.257812 3065.351562 L 1592.257812 3024.925781 L 2137.664062 3024.925781 L 2137.664062 3065.351562" fill="#442e34"/></g><g><path d="M 1671.710938 2484.773438 L 1581.386719 2484.773438 L 1581.386719 2460.199219 L 1671.710938 2460.199219 L 1671.710938 2484.773438" fill="#442e34"/></g><g><path d="M 1660.839844 2509.339844 L 1592.265625 2509.339844 L 1592.265625 2484.765625 L 1660.839844 2484.765625 L 1660.839844 2509.339844" fill="#442e34"/></g><g><path d="M 2156.410156 2484.773438 L 2066.078125 2484.773438 L 2066.078125 2460.191406 L 2156.410156 2460.191406 L 2156.410156 2484.773438" fill="#442e34"/></g><g><path d="M 2145.519531 2509.351562 L 2076.941406 2509.351562 L 2076.941406 2484.777344 L 2145.519531 2484.777344 L 2145.519531 2509.351562" fill="#442e34"/></g><g><path d="M 2098.203125 3027.695312 L 2045.335938 3027.695312 L 2045.335938 2463.101562 L 2098.203125 2463.101562 L 2098.203125 3027.695312" fill="#fff"/></g><g><path d="M 1681.132812 3040.40625 L 1657.597656 3040.40625 L 1657.597656 2831.550781 L 1681.132812 2831.550781 L 1681.132812 3040.40625" fill="#fff"/></g><g><path d="M 1761.34375 3040.410156 L 1737.808594 3040.410156 L 1737.808594 2831.558594 L 1761.34375 2831.558594 L 1761.34375 3040.410156" fill="#fff"/></g><g><path d="M 1846.449219 3040.410156 L 1822.910156 3040.410156 L 1822.910156 2831.550781 L 1846.449219 2831.550781 L 1846.449219 3040.410156" fill="#fff"/></g><g><path d="M 1925.910156 3040.410156 L 1902.375 3040.410156 L 1902.375 2831.550781 L 1925.910156 2831.550781 L 1925.910156 3040.410156" fill="#fff"/></g><g><path d="M 2011.761719 3040.410156 L 1988.226562 3040.410156 L 1988.226562 2831.550781 L 2011.761719 2831.550781 L 2011.761719 3040.410156" fill="#fff"/></g><g><path d="M 2045.339844 2843.316406 L 1587.6875 2843.316406 L 1587.6875 2819.785156 L 2045.339844 2819.785156 L 2045.339844 2843.316406" fill="#442e34"/></g><g><path d="M 1614.121094 3027.921875 L 1561.25 3027.921875 L 1561.25 2463.320312 L 1614.121094 2463.320312 L 1614.121094 3027.921875" fill="#fff"/></g><g><path d="M 2106.058594 3068.171875 L 1561.246094 3068.171875 L 1561.246094 3027.746094 L 2106.058594 3027.746094 L 2106.058594 3068.171875" fill="#442e34"/></g><g><path d="M 1077.371094 3026.726562 L 1024.5 3026.726562 L 1024.5 2462.121094 L 1077.371094 2462.121094 L 1077.371094 3026.726562" fill="#fff"/></g><g><path d="M 660.292969 3039.449219 L 636.757812 3039.449219 L 636.757812 2830.589844 L 660.292969 2830.589844 L 660.292969 3039.449219" fill="#fff"/></g><g><path d="M 740.507812 3039.449219 L 716.972656 3039.449219 L 716.972656 2830.589844 L 740.507812 2830.589844 L 740.507812 3039.449219" fill="#fff"/></g><g><path d="M 825.609375 3039.449219 L 802.074219 3039.449219 L 802.074219 2830.589844 L 825.609375 2830.589844 L 825.609375 3039.449219" fill="#fff"/></g><g><path d="M 905.070312 3039.449219 L 881.535156 3039.449219 L 881.535156 2830.589844 L 905.070312 2830.589844 L 905.070312 3039.449219" fill="#fff"/></g><g><path d="M 990.925781 3039.449219 L 967.390625 3039.449219 L 967.390625 2830.589844 L 990.925781 2830.589844 L 990.925781 3039.449219" fill="#fff"/></g><g><path d="M 1024.5 2842.359375 L 566.84375 2842.359375 L 566.84375 2818.828125 L 1024.5 2818.828125 L 1024.5 2842.359375" fill="#442e34"/></g><g><path d="M 592.675781 3026.957031 L 539.808594 3026.957031 L 539.808594 2462.351562 L 592.675781 2462.351562 L 592.675781 3026.957031" fill="#fff"/></g><g><path d="M 1077.371094 3067.214844 L 531.957031 3067.214844 L 531.957031 3026.789062 L 1077.371094 3026.789062 L 1077.371094 3067.214844" fill="#442e34"/></g><g><path d="M 611.402344 2486.640625 L 521.078125 2486.640625 L 521.078125 2462.058594 L 611.402344 2462.058594 L 611.402344 2486.640625" fill="#fff"/></g><g><path d="M 600.527344 2511.210938 L 531.957031 2511.210938 L 531.957031 2486.640625 L 600.527344 2486.640625 L 600.527344 2511.210938" fill="#fff"/></g><g><path d="M 1096.101562 2486.640625 L 1005.769531 2486.640625 L 1005.769531 2462.058594 L 1096.101562 2462.058594 L 1096.101562 2486.640625" fill="#fff"/></g><g><path d="M 1085.21875 2511.210938 L 1016.648438 2511.210938 L 1016.648438 2486.640625 L 1085.21875 2486.640625 L 1085.21875 2511.210938" fill="#fff"/></g><g><path d="M 1633.992188 2486.632812 L 1543.671875 2486.632812 L 1543.671875 2462.0625 L 1633.992188 2462.0625 L 1633.992188 2486.632812" fill="#fff"/></g><g><path d="M 1623.109375 2511.210938 L 1554.539062 2511.210938 L 1554.539062 2486.640625 L 1623.109375 2486.640625 L 1623.109375 2511.210938" fill="#fff"/></g><g><path d="M 2116.945312 2486.628906 L 2026.617188 2486.628906 L 2026.617188 2462.058594 L 2116.945312 2462.058594 L 2116.945312 2486.628906" fill="#fff"/></g><g><path d="M 2106.058594 2511.210938 L 2037.488281 2511.210938 L 2037.488281 2486.636719 L 2106.058594 2486.636719 L 2106.058594 2511.210938" fill="#fff"/></g><g><path d="M 3055.957031 2394.128906 L 2597.527344 2394.128906 L 2597.527344 2231.941406 L 3055.957031 2231.941406 L 3055.957031 2394.128906" fill="#fff"/></g><g clip-path="url(#i)"><path d="M 2564.839844 2344.097656 L 2723.070312 2070.039062 L 3090.953125 2282.4375 L 2932.726562 2556.496094 Z M 2564.839844 2344.097656" fill="url(#j)"/></g><g><path d="M 2639.003906 2374.941406 L 2614.734375 2374.941406 L 2614.734375 2251.605469 L 2639.003906 2251.605469 L 2639.003906 2374.941406" fill="#6482c2"/></g><g><path d="M 3037.667969 2250.738281 L 3037.667969 2276.75 L 2615.339844 2276.75 L 2615.339844 2250.738281 L 3037.667969 2250.738281" fill="#6482c2"/></g><g><path d="M 2761.886719 2247.285156 L 2761.886719 2387.46875 L 2744.214844 2387.46875 L 2744.214844 2247.285156 L 2761.886719 2247.285156" fill="#fff"/></g><g><path d="M 2912.941406 2242.941406 L 2912.941406 2383.128906 L 2895.265625 2383.128906 L 2895.265625 2242.941406 L 2912.941406 2242.941406" fill="#fff"/></g><g><path d="M 1551.167969 2109.09375 L 1085.679688 2109.09375 L 1085.679688 1503.28125 L 1551.167969 1503.28125 L 1551.167969 2109.09375" fill="#fff"/></g><g clip-path="url(#k)"><path d="M 875.320312 1950.144531 L 1217.601562 1357.296875 L 1761.527344 1671.332031 L 1419.246094 2264.179688 Z M 875.320312 1950.144531" fill="url(#l)"/></g><g><path d="M 1571.039062 2128.644531 L 1065.808594 2128.644531 L 1065.808594 2089.558594 L 1571.039062 2089.558594 L 1571.039062 2128.644531" fill="#fff"/></g><g><path d="M 1148.167969 2087.460938 L 1112.84375 2087.460938 L 1112.84375 1541.667969 L 1148.167969 1541.667969 L 1148.167969 2087.460938" fill="#6482c2"/></g><g><path d="M 1520.058594 1530.648438 L 1520.058594 1568.519531 L 1113.765625 1568.519531 L 1113.765625 1530.648438 L 1520.058594 1530.648438" fill="#6482c2"/></g><g><path d="M 1213.015625 2092.375 L 1202.511719 2092.375 L 1202.511719 1510.761719 L 1213.015625 1510.761719 L 1213.015625 2092.375" fill="#fff"/></g><g><path d="M 1432.914062 2109.109375 L 1422.410156 2109.109375 L 1422.410156 1516.433594 L 1432.914062 1516.433594 L 1432.914062 2109.109375" fill="#fff"/></g><g><path d="M 1331.285156 1525.628906 L 1331.285156 2128.660156 L 1305.554688 2128.660156 L 1305.554688 1525.628906 L 1331.285156 1525.628906" fill="#fff"/></g><g><path d="M 1534.136719 1679.03125 L 1112.472656 1679.03125 L 1112.472656 1667.8125 L 1534.136719 1667.8125 L 1534.136719 1679.03125" fill="#fff"/></g><g><path d="M 1534.132812 1815.5625 L 1112.472656 1815.5625 L 1112.472656 1804.339844 L 1534.132812 1804.339844 L 1534.132812 1815.5625" fill="#fff"/></g><g><path d="M 1530.636719 1978.273438 L 1108.984375 1978.273438 L 1108.984375 1967.046875 L 1530.636719 1967.046875 L 1530.636719 1978.273438" fill="#fff"/></g><g><path d="M 1588.816406 1548.359375 L 1054.355469 1548.359375 L 1054.355469 1504.339844 L 1588.816406 1504.339844 L 1588.816406 1548.359375" fill="#fff"/></g><g><path d="M 2193.375 2434.695312 L 437.320312 2434.695312 L 437.320312 2412.453125 L 2193.375 2412.453125 L 2193.375 2434.695312" fill="#fff"/></g><g><path d="M 1353.832031 2206.871094 L 1319.84375 2182.925781 L 939.5 2456.925781 L 1003.160156 2456.925781 L 1353.832031 2206.871094" fill="#fff"/></g><g><path d="M 1287.113281 2207.417969 L 1319.84375 2182.925781 L 1700.558594 2456.925781 L 1637.039062 2456.925781 L 1287.113281 2207.417969" fill="#fff"/></g><g><path d="M 2166.125 2462.316406 L 466.878906 2462.316406 L 466.878906 2435.394531 L 2166.125 2435.394531 L 2166.125 2462.316406" fill="#908cac"/></g></g></svg>