<?xml version="1.0" encoding="UTF-8"?><svg xmlns="http://www.w3.org/2000/svg" xmlns:xlink="http://www.w3.org/1999/xlink" height="254.8" preserveAspectRatio="xMidYMid meet" version="1.1" viewBox="81.7 83.7 261.8 254.8" width="261.8" zoomAndPan="magnify">
 <g id="surface1">
  <g id="change1_1"><path d="m312.42 134.27c-5.96-2.05-12.08-3.38-18.28-4.18h-40.51c-20.23 1.63-40.27 4.95-60.38 7.66-36.13 4.89-78.06 11.12-111.57-7.04l-0.004 198.51c9.488 3.37 19.534 6.35 28.354 7.54 13.59 1.82 26.57 0.06 39.77-3.09 24.88-5.91 49.1-14.82 74.52-18.29 20.73-2.83 41.75-3.45 62.63-2.1 9.3 0.6 18.66 1.34 27.77 3.36 3.03 0.68 28.8 6.65 28.8 9.4v-172.95c-9.47-7.74-19.42-14.81-31.1-18.82" fill="#7bd3e2"/></g>
  <g id="change2_1"><path d="m122.29 142.22c-12.56-1.15-24.774-3.92-36.134-9.25 11.36 5.33 23.574 8.1 36.134 9.24v0.01m-36.138-9.25c-0.023-0.01-0.047-0.02-0.07-0.03 0.023 0.01 0.047 0.02 0.07 0.03m-0.074-0.04c-0.027 0-0.043-0.02-0.07-0.03 0.023 0.01 0.047 0.03 0.07 0.03m-0.082-0.04c-0.019 0-0.039-0.01-0.055-0.02 0.016 0.01 0.036 0.02 0.055 0.02m-0.074-0.03c-0.02-0.01-0.039-0.02-0.063-0.03 0.024 0.01 0.043 0.02 0.063 0.03m-0.086-0.04c-0.012 0-0.027-0.01-0.039-0.02 0.012 0.01 0.023 0.01 0.039 0.02m-0.07-0.03c-0.02-0.01-0.036-0.02-0.051-0.03 0.015 0.01 0.035 0.02 0.051 0.03m-0.09-0.04c-0.004-0.01-0.02-0.02-0.024-0.02 0.008 0.01 0.016 0.01 0.024 0.02m-0.067-0.04m-0.093-0.04c-0.004-0.01-0.004-0.01-0.012-0.01 0.004 0 0.008 0.01 0.012 0.01m-3.286-1.66c-0.003 0-0.003 0-0.003-0.01 0 0.01 0 0.01 0.003 0.01m-0.14-0.08c-0.008 0-0.012 0-0.02-0.01 0.008 0.01 0.012 0.01 0.02 0.01m-0.059-0.03c-0.008 0-0.015-0.01-0.023-0.01 0.008 0 0.015 0.01 0.023 0.01m-0.086-0.04c-0.007-0.01-0.019-0.02-0.031-0.02 0.012 0 0.024 0.01 0.031 0.02m-0.058-0.04c-0.016 0-0.032-0.02-0.047-0.02 0.015 0.01 0.031 0.02 0.047 0.02m-0.078-0.04c-0.016-0.01-0.032-0.01-0.047-0.02 0.015 0.01 0.031 0.01 0.047 0.02m-0.067-0.03c-0.023-0.02-0.043-0.03-0.066-0.04 0.023 0.01 0.043 0.02 0.066 0.04" fill="#bce9ef"/></g>
  <g id="change3_1"><path d="m121.24 337.49c-3.7 0-7.43-0.23-11.21-0.73-8.82-1.19-18.866-4.17-28.354-7.54v-198.51c0.023 0.01 0.043 0.02 0.066 0.04 0.004 0 0.016 0 0.02 0.01 0.015 0.01 0.031 0.01 0.047 0.02 0.011 0.01 0.019 0.01 0.031 0.02 0.015 0 0.031 0.02 0.047 0.02 0.008 0.01 0.019 0.02 0.027 0.02 0.012 0 0.024 0.01 0.031 0.02 0.024 0.01 0.043 0.02 0.063 0.03 0.008 0 0.015 0.01 0.023 0.01 0.012 0.01 0.028 0.01 0.039 0.02 0.008 0.01 0.012 0.01 0.02 0.01 0.043 0.03 0.09 0.05 0.137 0.07 0 0.01 0 0.01 0.003 0.01 1.082 0.58 2.176 1.13 3.274 1.65 0.008 0 0.008 0 0.012 0.01 0.031 0.01 0.062 0.03 0.093 0.04 0.016 0.01 0.028 0.02 0.043 0.02 0.004 0 0.02 0.01 0.024 0.02 0.012 0 0.023 0.01 0.039 0.01 0.015 0.01 0.031 0.02 0.051 0.03 0.011 0 0.019 0.01 0.031 0.01 0.012 0.01 0.027 0.02 0.039 0.02 0.008 0 0.016 0.01 0.023 0.01 0.024 0.01 0.043 0.02 0.063 0.03 0.008 0 0.012 0.01 0.019 0.01 0.016 0.01 0.036 0.02 0.055 0.02 0.004 0.01 0.008 0.01 0.012 0.01 0.027 0.01 0.043 0.03 0.07 0.03 0 0.01 0.004 0.01 0.004 0.01 0.023 0.01 0.047 0.02 0.07 0.03h0.004c11.36 5.33 23.574 8.1 36.134 9.25 0.12 5.42 0.18 10.85 0.1 16.28-0.27 17.03-2.46 33.89-3.57 50.88-1.65 25.27-0.76 56.26 15.47 77.33 6.62 8.61 16.03 14.75 26.82 16.56 3.19 0.54 6.38 0.77 9.57 0.77 11.28 0 22.59-2.87 33.52-5.34 24.41-5.53 48.57-11.99 73.32-11.99 7.3 0 14.66 0.57 22.09 1.88 15.71 2.77 31.54 7.96 43 19.56 0.32 0.31 0.61 0.65 0.91 0.97v16.92c0-2.75-25.77-8.72-28.8-9.4-9.11-2.02-18.47-2.76-27.77-3.36-7.01-0.45-14.04-0.68-21.07-0.68-13.9 0-27.79 0.9-41.56 2.78-25.42 3.47-49.64 12.38-74.52 18.29-9.53 2.27-18.95 3.82-28.56 3.82" fill="#5bc8d8"/></g>
  <g id="change2_2"><path d="m202.85 136.42c6.49-0.92 12.99-1.87 19.49-2.76-6.5 0.89-13 1.84-19.49 2.76" fill="#bce9ef"/></g>
  <g id="change3_2"><path d="m268.86 226.23c-0.5 0-1.01-0.13-1.49-0.43-0.14-0.07-0.28-0.16-0.4-0.25v-0.01c-0.14-0.1-0.27-0.22-0.38-0.35-20.72-18.5-45.58-34.82-57.62-60.84-4.04-8.74-6.29-18.44-6.12-27.93 6.49-0.92 12.99-1.87 19.49-2.76-0.09 1.32-0.13 2.66-0.13 3.99 0 4.85 0.54 9.72 1.57 14.46 6.12 28.01 26.86 49.32 43.09 71.87 0.15 0.29 0.36 0.54 0.62 0.77 0.58 0.55 1.28 0.8 1.98 0.81h0.12 0.09c0.6-0.01 1.2-0.18 1.71-0.57-0.44 0.62-1.05 0.99-1.71 1.13l-0.08 0.03-0.13 0.02c-0.2 0.04-0.4 0.06-0.61 0.06" fill="#5bc8d8"/></g>
  <g id="change4_1"><path d="m301.52 99.309c-15.49-13.883-42.06-15.563-59.23-3.653-18.14 12.584-23.01 35.824-18.51 56.454 6.12 28.01 26.86 49.32 43.09 71.87 0.15 0.29 0.36 0.54 0.62 0.77 0.58 0.55 1.28 0.8 1.98 0.81h0.12 0.09c0.71-0.01 1.42-0.25 2-0.81 0.26-0.23 0.47-0.48 0.63-0.77 14.59-20.28 32.33-39.06 40.6-63.1 7.09-20.57 5.75-46.2-11.39-61.571" fill="#ef365b"/></g>
  <g id="change5_1"><path d="m242.29 95.656c0.01-0.008 0.03-0.019 0.04-0.031-0.01 0.012-0.03 0.023-0.04 0.031" fill="#f7969c"/></g>
  <g id="change6_1"><path d="m267.16 224.41c-0.11-0.14-0.21-0.28-0.29-0.43-16.23-22.55-36.97-43.86-43.09-71.87-1.03-4.74-1.57-9.61-1.57-14.46 0-16.28 6.1-32.3 20.08-41.994 0.01-0.008 0.03-0.019 0.04-0.031 7.69-5.316 17.25-7.91 26.86-7.91 6.18 0 12.37 1.07 18.1 3.18-2.03-0.309-4.08-0.461-6.13-0.461-12.07 0-24.16 5.254-31.84 14.706-9.88 12.15-11.62 29-7.73 43.82 3.69 14.09 11.86 26.38 17.65 39.6 4.8 10.95 7.11 23.43 7.92 35.85" fill="#ee294a"/></g>
  <g id="change7_1"><path d="m292.67 135.35c0 12.76-10.34 23.1-23.09 23.1-12.76 0-23.1-10.34-23.1-23.1 0-12.75 10.34-23.09 23.1-23.09 12.75 0 23.09 10.34 23.09 23.09" fill="#fbc32d"/></g>
  <g id="change8_1"><path d="m269.58 158.45h-0.26 0.26 0.03-0.03m0.04 0h0.03-0.03m0.03 0h0.04-0.04m0.05 0h0.02-0.02m0.03 0h0.03-0.03m0.04 0h0.03-0.03m0.03 0h0.04-0.04m0.05 0h0.02-0.02m0.03 0h0.03-0.03m0.04-0.01h0.02-0.02m0.03 0h0.03-0.03m0.05 0h0.02-0.02m0.03 0h0.03-0.03m0.04 0h0.02-0.02m0.08 0h0.01-0.01m0.08 0" fill="#ef3641"/></g>
  <g id="change9_1"><path d="m269.58 158.45h-0.26c-12.64-0.15-22.84-10.43-22.84-23.1 0-12.75 10.34-23.09 23.1-23.09 0.86 0 1.71 0.05 2.54 0.14-2.87 0.57-5.63 1.62-8.06 3.37-5.08 3.66-7.66 9.78-7.58 16 0.11 8.8 5.97 16.29 14.51 18.51 1.85 0.48 3.77 0.72 5.69 0.72 4.66 0 9.33-1.41 12.98-4.26-3.86 6.81-11.09 11.46-19.43 11.7h-0.07-0.01-0.06-0.02-0.01-0.03-0.01-0.02-0.02-0.03-0.01-0.02c0 0.01-0.01 0.01-0.01 0.01h-0.03-0.01-0.02-0.01-0.04-0.03-0.01-0.03-0.01-0.02-0.01-0.04-0.03-0.01-0.03" fill="#f9b01f"/></g>
  <g id="change10_1"><path d="m271.94 239.09l-2.84-0.36c0.11-0.88 0.17-1.77 0.17-2.64 0-1.52-0.17-3.01-0.5-4.43l2.78-0.65c0.38 1.64 0.57 3.35 0.57 5.08 0 0.99-0.06 2-0.18 3zm-152.5 2.41l-1.06-2.65c2.38-0.96 5.16-1.33 8.13-1.1l-0.22 2.86c-2.5-0.2-4.87 0.1-6.85 0.89zm19.96 4.44c-1.73-1.45-3.86-2.71-6.16-3.64l1.07-2.65c2.57 1.05 4.96 2.46 6.92 4.09zm-29.63 6.32v-0.35c0-2.25 0.46-4.36 1.39-6.26 0.24-0.5 0.5-0.97 0.79-1.43l2.42 1.52c-0.23 0.37-0.44 0.76-0.64 1.16-0.73 1.51-1.11 3.2-1.11 5.01v0.29zm155.52 1.22l-2.15-1.89c1.05-1.18 1.98-2.44 2.77-3.74 0.44-0.72 0.84-1.48 1.2-2.25l2.59 1.21c-0.4 0.86-0.85 1.71-1.34 2.52-0.88 1.45-1.91 2.85-3.07 4.15zm-118.33 4.53c-0.76-2.4-1.76-4.62-2.98-6.62l2.43-1.49c1.35 2.19 2.45 4.63 3.27 7.25zm45.17 0.17l-0.19-2.86c2.59-0.17 5.23-0.17 7.81 0l-0.2 2.85c-2.44-0.16-4.96-0.16-7.42 0.01zm22.08 2.79c-2.14-0.6-4.67-1.28-7.3-1.81l0.57-2.8c2.72 0.55 5.32 1.25 7.5 1.85zm-36.63 0.09l-0.92-2.7c2.46-0.83 5-1.51 7.54-2.01l0.56 2.8c-2.43 0.48-4.85 1.13-7.18 1.91zm74.77 1.42l-1.09-2.64 0.55-0.23c2.08-0.9 4.07-1.99 5.88-3.23l1.62 2.35c-1.97 1.36-4.12 2.54-6.38 3.51zm-23.24 2.29c-2.2-0.38-4.6-0.93-7.55-1.73l0.75-2.76c2.86 0.77 5.18 1.31 7.3 1.68zm7.9 0.74l-0.07-2.86h0.07c2.41 0 4.85-0.24 7.23-0.7l0.55 2.8c-2.56 0.5-5.18 0.76-7.78 0.76zm-121.3 1.49c-1.7-2.21-3.07-4.51-4.08-6.83l2.62-1.14c0.92 2.11 2.17 4.2 3.73 6.23zm48.56 0.6l-1.59-2.38c2.14-1.43 4.42-2.75 6.77-3.9l1.25 2.57c-2.23 1.09-4.39 2.34-6.43 3.71zm-12.88 5.14l-2.85-0.19 0.06-0.93c0.03-0.69 0.05-1.38 0.05-2.07 0-1.47-0.08-2.94-0.23-4.37l2.85-0.29c0.16 1.52 0.23 3.09 0.23 4.66 0 0.74-0.01 1.47-0.05 2.21-0.01 0.33-0.03 0.65-0.06 0.98zm0.1 3.51l-1.2-2.59c0.51-0.24 1.02-0.5 1.52-0.77 1.75-0.97 3.35-2.11 4.68-3.1l1.71 2.29c-1.41 1.04-3.11 2.26-5.01 3.31-0.55 0.31-1.12 0.6-1.7 0.86zm-23.38 0.57c-1.01-0.41-2.01-0.87-2.96-1.4-1.3-0.71-2.62-1.62-3.94-2.7l1.82-2.21c1.18 0.97 2.35 1.78 3.49 2.4 0.86 0.47 1.75 0.9 2.66 1.27zm11.03 2.12c-1.1 0-2.2-0.06-3.28-0.18l0.31-2.84c2.38 0.26 4.85 0.2 7.22-0.17l0.45 2.82c-1.55 0.25-3.13 0.37-4.7 0.37zm8.89 9.04l-2.67-1.01c0.88-2.33 1.59-4.71 2.12-7.09l2.79 0.61c-0.56 2.52-1.31 5.04-2.24 7.49zm-7.43 13.7l-2.31-1.68c1.46-2 2.8-4.12 3.97-6.28l2.51 1.37c-1.23 2.27-2.64 4.49-4.17 6.59zm-10.72 11.3l-1.8-2.22 0.37-0.3c1.78-1.47 3.49-3.06 5.09-4.75l2.07 1.97c-1.68 1.77-3.48 3.44-5.34 4.98zm-13.19 8.23l-1.22-2.59c2.26-1.06 4.46-2.26 6.55-3.55l1.51 2.43c-2.18 1.35-4.48 2.6-6.84 3.71zm-14.7 5l-0.63-2.78c2.44-0.55 4.86-1.23 7.19-2.02l0.92 2.7c-2.43 0.83-4.95 1.54-7.48 2.1zm-15.408 1.81l-0.043-2.86c2.488-0.03 4.996-0.19 7.457-0.48l0.336 2.84c-2.559 0.3-5.168 0.47-7.75 0.5" fill="#081c3a"/></g>
 </g>
</svg>