<?xml version="1.0" encoding="UTF-8" standalone="no"?><svg xmlns="http://www.w3.org/2000/svg" xmlns:xlink="http://www.w3.org/1999/xlink" fill="#000000" height="102.3" preserveAspectRatio="xMidYMid meet" version="1" viewBox="0.0 -0.9 95.6 102.3" width="95.6" zoomAndPan="magnify"><g fill="#ffcf05" id="change1_1"><path d="m92.115 56.539c0.216-1.638 3.234-4.062 3.332-5.712 0.175-3-3.879-8.87-6.664-9.997-4.422-1.789-26.896-0.952-26.896-0.952-2.196-3.84 3.914-13.321 5.594-17.415 2.467-5.999 2.051-13.959-1.069-18.048-3.81-4.996-10.805-5.329-10.949-3.093-1.042 16.214-4.146 20.712-8.302 23.918-2.496 1.926-4.679 3.611-5.83 6.546-7.083 18.038-12.332 22.214-15.332 22.214h-2v40.999l20.995 3.905s26.065 2.467 34.272 0c2.582-0.774 7.039-4.652 8.092-7.141 0.602-1.428-0.233-4.809 0.478-6.188 1.049-2.043 5.479-4.602 5.475-7.378-0.003998-1.979-2.311-5.405-2.143-7.379 0.167-1.976 4.288-4.685 4.284-6.664-0.009003-2.076-3.61-5.555-3.337-7.615z" fill="inherit"/><path d="m20 93.999c0 2.209-1.791 4-4 4h-12c-2.209 0-4-1.791-4-4v-37.999c0-2.209 1.791-4 4-4h12c2.209 0 4 1.791 4 4v37.999z" fill="inherit"/></g></svg>